<svg width="1024" height="1536" viewBox="0 0 1024 1536" xmlns="http://www.w3.org/2000/svg">
  <defs>
    <linearGradient id="bg" x1="0" y1="0" x2="0" y2="1">
      <stop offset="0%" stop-color="#0e1c24"/>
      <stop offset="55%" stop-color="#0a1520"/>
      <stop offset="100%" stop-color="#040a10"/>
    </linearGradient>
    <radialGradient id="glow" cx="50%" cy="30%" r="40%">
      <stop offset="0%" stop-color="#eaf6fa" stop-opacity="0.5"/>
      <stop offset="100%" stop-color="#eaf6fa" stop-opacity="0"/>
    </radialGradient>
    <linearGradient id="tableTop" x1="0" y1="0" x2="0" y2="1">
      <stop offset="0%" stop-color="#3a4c56"/>
      <stop offset="100%" stop-color="#1a242c"/>
    </linearGradient>
    <linearGradient id="figA" x1="0" y1="0" x2="0" y2="1">
      <stop offset="0%" stop-color="#1c2830"/>
      <stop offset="100%" stop-color="#060a0e"/>
    </linearGradient>
    <linearGradient id="vignette" x1="0" y1="0" x2="0" y2="1">
      <stop offset="0%" stop-color="#000000" stop-opacity="0"/>
      <stop offset="55%" stop-color="#000000" stop-opacity="0.1"/>
      <stop offset="100%" stop-color="#000000" stop-opacity="0.92"/>
    </linearGradient>
    <filter id="soft" x="-50%" y="-50%" width="200%" height="200%"><feGaussianBlur stdDeviation="20"/></filter>
    <filter id="grain"><feTurbulence type="fractalNoise" baseFrequency="0.85" numOctaves="2" stitchTiles="stitch" result="n"/><feColorMatrix in="n" type="matrix" values="0 0 0 0 0  0 0 0 0 0  0 0 0 0 0  0 0 0 0.04 0"/></filter>
    <filter id="ts" x="-30%" y="-30%" width="160%" height="160%"><feDropShadow dx="0" dy="5" stdDeviation="7" flood-color="#000000" flood-opacity="0.55"/></filter>
  </defs>
  <rect width="1024" height="1536" fill="url(#bg)"/>
  <circle cx="512" cy="360" r="340" fill="url(#glow)"/>
  <g transform="translate(512,220)" opacity="0.9">
    <path d="M-160 40 L0 -60 L160 40" fill="none" stroke="#4a5c66" stroke-width="8" stroke-linecap="round"/>
    <circle cx="0" cy="-60" r="26" fill="#eaf6fa" opacity="0.9"/>
    <circle cx="-100" cy="0" r="16" fill="#eaf6fa" opacity="0.6"/>
    <circle cx="100" cy="0" r="16" fill="#eaf6fa" opacity="0.6"/>
  </g>
  <rect x="240" y="720" width="544" height="220" rx="12" fill="url(#tableTop)" stroke="#0a1218" stroke-width="4"/>
  <rect x="260" y="740" width="504" height="6" fill="#eaf6fa" opacity="0.15"/>
  <g transform="translate(512,700)" filter="url(#ts)">
    <ellipse cx="0" cy="160" rx="160" ry="18" fill="#000000" opacity="0.3" filter="url(#soft)"/>
    <path d="M-150 40 Q-150 8 -110 0 L110 0 Q150 8 150 40 L150 60 Q150 76 130 76 L-130 76 Q-150 76 -150 60 Z" fill="url(#figA)" stroke="#060a0e" stroke-width="3"/>
    <circle cx="0" cy="-14" r="20" fill="#060a0e"/>
  </g>
  <g transform="translate(512,540)" filter="url(#ts)">
    <path d="M-60 20 Q-64 -60 0 -90 Q64 -60 60 20 L56 140 Q56 156 32 156 L-32 156 Q-56 156 -56 140 Z" fill="url(#figA)" stroke="#060a0e" stroke-width="3"/>
    <circle cx="0" cy="-108" r="24" fill="#eaf6fa" opacity="0.85"/>
    <rect x="-16" y="-124" width="32" height="10" rx="4" fill="#eaf6fa" opacity="0.9"/>
  </g>
  <g opacity="0.5" stroke="#4a7ca5">
    <rect x="34" y="34" width="956" height="1468" fill="none" stroke-width="1.4"/>
    <rect x="44" y="44" width="936" height="1448" fill="none" stroke-width="0.8"/>
    <path d="M34 76 V34 H76" fill="none" stroke-width="2"/><path d="M948 34 H990 V76" fill="none" stroke-width="2"/>
    <path d="M34 1460 V1502 H76" fill="none" stroke-width="2"/><path d="M990 1460 V1502 H948" fill="none" stroke-width="2"/>
  </g>
  <rect width="1024" height="1536" fill="url(#vignette)"/>
  <rect width="1024" height="1536" filter="url(#grain)"/>
  <g filter="url(#ts)">
    <line x1="362" y1="1180" x2="662" y2="1180" stroke="#4a7ca5" stroke-width="1" opacity="0.7"/>
    <path d="M187.07 1254.38Q182.69 1254.38 179.41 1252.53Q176.13 1250.67 174.36 1247.22Q172.59 1243.77 172.59 1239.14Q172.59 1234.51 174.36 1231.08Q176.13 1227.65 179.41 1225.79Q182.69 1223.94 187.07 1223.94Q192.59 1223.94 196.59 1226.97Q197.22 1227.48 197.47 1227.98Q197.72 1228.49 197.72 1229.25Q197.72 1230.34 197.11 1231.12Q196.50 1231.90 195.62 1231.90Q195.03 1231.90 194.59 1231.75Q194.14 1231.60 193.60 1231.22Q191.91 1230.13 190.48 1229.65Q189.05 1229.16 187.41 1229.16Q183.37 1229.16 181.33 1231.67Q179.28 1234.17 179.28 1239.14Q179.28 1249.16 187.41 1249.16Q188.97 1249.16 190.36 1248.67Q191.75 1248.19 193.60 1247.10Q194.23 1246.72 194.65 1246.57Q195.07 1246.42 195.62 1246.42Q196.50 1246.42 197.11 1247.20Q197.72 1247.98 197.72 1249.07Q197.72 1249.83 197.45 1250.36Q197.18 1250.88 196.59 1251.35Q192.59 1254.38 187.07 1254.38M210.77 1232.82Q215.32 1232.82 217.51 1235.03Q219.70 1237.24 219.70 1241.79L219.70 1251.31Q219.70 1252.69 218.90 1253.47Q218.10 1254.25 216.67 1254.25Q215.32 1254.25 214.50 1253.43Q213.68 1252.61 213.68 1251.31L213.68 1251.01Q213.05 1252.57 211.57 1253.45Q210.10 1254.34 208.12 1254.34Q206.02 1254.34 204.31 1253.49Q202.61 1252.65 201.62 1251.14Q200.63 1249.62 200.63 1247.77Q200.63 1245.50 201.79 1244.19Q202.94 1242.89 205.51 1242.30Q208.08 1241.71 212.54 1241.71L213.64 1241.71L213.64 1240.95Q213.64 1239.18 212.86 1238.38Q212.08 1237.58 210.27 1237.58Q208.46 1237.58 205.05 1238.84Q204.08 1239.31 203.41 1239.31Q202.48 1239.31 201.93 1238.65Q201.39 1238 201.39 1236.95Q201.39 1236.11 201.77 1235.56Q202.14 1235.01 202.99 1234.55Q204.46 1233.75 206.59 1233.29Q208.71 1232.82 210.77 1232.82M209.51 1249.96Q211.36 1249.96 212.50 1248.72Q213.64 1247.47 213.64 1245.50L213.64 1244.78L212.92 1244.78Q209.51 1244.78 208.14 1245.33Q206.77 1245.87 206.77 1247.31Q206.77 1248.48 207.55 1249.22Q208.33 1249.96 209.51 1249.96M239.99 1254.25Q238.48 1254.25 237.59 1253.37Q236.71 1252.48 236.71 1250.97L236.71 1227.39Q236.71 1225.92 237.51 1225.12Q238.31 1224.32 239.78 1224.32L250.35 1224.32Q255.19 1224.32 257.88 1226.76Q260.58 1229.20 260.58 1233.58Q260.58 1237.96 257.88 1240.40Q255.19 1242.84 250.35 1242.84L243.28 1242.84L243.28 1250.97Q243.28 1252.48 242.39 1253.37Q241.51 1254.25 239.99 1254.25M249.51 1237.88Q254.43 1237.88 254.43 1233.62Q254.43 1229.33 249.51 1229.33L243.28 1229.33L243.28 1237.88L249.51 1237.88M277.42 1232.82Q284.62 1232.82 284.62 1241.54L284.62 1251.26Q284.62 1252.65 283.75 1253.45Q282.89 1254.25 281.42 1254.25Q279.94 1254.25 279.10 1253.45Q278.26 1252.65 278.26 1251.26L278.26 1241.45Q278.26 1239.60 277.48 1238.70Q276.70 1237.79 275.06 1237.79Q273.08 1237.79 271.88 1239.05Q270.68 1240.32 270.68 1242.42L270.68 1251.26Q270.68 1252.65 269.84 1253.45Q269 1254.25 267.53 1254.25Q266.05 1254.25 265.19 1253.45Q264.33 1252.65 264.33 1251.26L264.33 1227.01Q264.33 1225.71 265.23 1224.91Q266.14 1224.11 267.61 1224.11Q269 1224.11 269.84 1224.87Q270.68 1225.62 270.68 1226.89L270.68 1236.07Q271.78 1234.47 273.50 1233.64Q275.23 1232.82 277.42 1232.82M298.68 1232.82Q303.23 1232.82 305.42 1235.03Q307.60 1237.24 307.60 1241.79L307.60 1251.31Q307.60 1252.69 306.80 1253.47Q306 1254.25 304.57 1254.25Q303.23 1254.25 302.41 1253.43Q301.58 1252.61 301.58 1251.31L301.58 1251.01Q300.95 1252.57 299.48 1253.45Q298.01 1254.34 296.03 1254.34Q293.92 1254.34 292.22 1253.49Q290.51 1252.65 289.52 1251.14Q288.53 1249.62 288.53 1247.77Q288.53 1245.50 289.69 1244.19Q290.85 1242.89 293.42 1242.30Q295.98 1241.71 300.45 1241.71L301.54 1241.71L301.54 1240.95Q301.54 1239.18 300.76 1238.38Q299.98 1237.58 298.17 1237.58Q296.36 1237.58 292.95 1238.84Q291.99 1239.31 291.31 1239.31Q290.39 1239.31 289.84 1238.65Q289.29 1238 289.29 1236.95Q289.29 1236.11 289.67 1235.56Q290.05 1235.01 290.89 1234.55Q292.36 1233.75 294.49 1233.29Q296.62 1232.82 298.68 1232.82M297.42 1249.96Q299.27 1249.96 300.41 1248.72Q301.54 1247.47 301.54 1245.50L301.54 1244.78L300.83 1244.78Q297.42 1244.78 296.05 1245.33Q294.68 1245.87 294.68 1247.31Q294.68 1248.48 295.46 1249.22Q296.24 1249.96 297.42 1249.96M301.84 1224.11Q300.99 1224.11 298.89 1223.52Q298.05 1223.27 297.14 1223.08Q296.24 1222.89 295.56 1222.89Q295.10 1222.89 294.81 1223.06Q294.51 1223.22 294.17 1223.56Q293.80 1223.90 293.52 1224.07Q293.25 1224.24 292.79 1224.24Q292.20 1224.24 291.84 1223.90Q291.48 1223.56 291.48 1222.97Q291.48 1222.38 292.01 1221.60Q292.53 1220.83 293.46 1220.28Q294.39 1219.73 295.52 1219.73Q296.28 1219.73 297.08 1219.90Q297.88 1220.07 299.14 1220.45Q301.04 1220.99 301.79 1220.99Q302.26 1220.99 302.53 1220.83Q302.81 1220.66 303.18 1220.28Q303.52 1219.94 303.82 1219.77Q304.11 1219.60 304.57 1219.60Q305.20 1219.60 305.54 1219.96Q305.88 1220.32 305.88 1220.91Q305.88 1221.50 305.35 1222.26Q304.83 1223.01 303.90 1223.56Q302.97 1224.11 301.84 1224.11M295.48 1230.42Q294.93 1230.85 294.30 1230.85Q293.54 1230.85 292.97 1230.32Q292.41 1229.79 292.41 1229.08Q292.41 1228.15 293.46 1227.43L296.53 1225.33Q297.58 1224.66 298.68 1224.66Q299.69 1224.66 300.83 1225.33L303.90 1227.43Q304.95 1228.15 304.95 1229.08Q304.95 1229.79 304.36 1230.34Q303.77 1230.89 303.06 1230.89Q302.51 1230.89 302.01 1230.51L298.68 1227.98L295.48 1230.42M329.08 1232.91Q330.55 1232.91 331.41 1233.71Q332.28 1234.51 332.28 1235.90L332.28 1251.35Q332.28 1252.65 331.37 1253.45Q330.46 1254.25 329.03 1254.25Q327.69 1254.25 326.89 1253.49Q326.09 1252.74 326.09 1251.47L326.09 1251.05Q325.12 1252.65 323.54 1253.49Q321.96 1254.34 319.98 1254.34Q316.07 1254.34 314.15 1252.17Q312.24 1250 312.24 1245.62L312.24 1235.90Q312.24 1234.51 313.10 1233.71Q313.96 1232.91 315.44 1232.91Q316.91 1232.91 317.75 1233.71Q318.59 1234.51 318.59 1235.90L318.59 1245.75Q318.59 1247.60 319.37 1248.48Q320.15 1249.37 321.75 1249.37Q323.60 1249.37 324.76 1248.11Q325.92 1246.84 325.92 1244.78L325.92 1235.90Q325.92 1234.51 326.76 1233.71Q327.60 1232.91 329.08 1232.91M359.56 1254.21Q358.08 1254.21 357.18 1253.33Q356.27 1252.44 356.27 1250.97L356.27 1229.67L349.45 1229.67Q346.34 1229.67 346.34 1226.97Q346.34 1224.32 349.45 1224.32L369.66 1224.32Q372.78 1224.32 372.78 1226.97Q372.78 1229.67 369.66 1229.67L362.84 1229.67L362.84 1250.97Q362.84 1252.44 361.96 1253.33Q361.07 1254.21 359.56 1254.21M388.18 1232.82Q395.38 1232.82 395.38 1241.54L395.38 1251.26Q395.38 1252.65 394.52 1253.45Q393.66 1254.25 392.18 1254.25Q390.71 1254.25 389.87 1253.45Q389.03 1252.65 389.03 1251.26L389.03 1241.45Q389.03 1239.60 388.25 1238.70Q387.47 1237.79 385.83 1237.79Q383.85 1237.79 382.65 1239.05Q381.45 1240.32 381.45 1242.42L381.45 1251.26Q381.45 1252.65 380.61 1253.45Q379.76 1254.25 378.29 1254.25Q376.82 1254.25 375.95 1253.45Q375.09 1252.65 375.09 1251.26L375.09 1227.01Q375.09 1225.71 376 1224.91Q376.90 1224.11 378.37 1224.11Q379.76 1224.11 380.61 1224.87Q381.45 1225.62 381.45 1226.89L381.45 1236.07Q382.54 1234.47 384.27 1233.64Q385.99 1232.82 388.18 1232.82M416.85 1232.91Q418.33 1232.91 419.19 1233.71Q420.05 1234.51 420.05 1235.90L420.05 1251.35Q420.05 1252.65 419.15 1253.45Q418.24 1254.25 416.81 1254.25Q415.46 1254.25 414.66 1253.49Q413.86 1252.74 413.86 1251.47L413.86 1251.05Q412.90 1252.65 411.32 1253.49Q409.74 1254.34 407.76 1254.34Q403.85 1254.34 401.93 1252.17Q400.01 1250 400.01 1245.62L400.01 1235.90Q400.01 1234.51 400.88 1233.71Q401.74 1232.91 403.21 1232.91Q404.69 1232.91 405.53 1233.71Q406.37 1234.51 406.37 1235.90L406.37 1245.75Q406.37 1247.60 407.15 1248.48Q407.93 1249.37 409.53 1249.37Q411.38 1249.37 412.54 1248.11Q413.70 1246.84 413.70 1244.78L413.70 1235.90Q413.70 1234.51 414.54 1233.71Q415.38 1232.91 416.85 1232.91M434.24 1232.82Q438.79 1232.82 440.98 1235.03Q443.17 1237.24 443.17 1241.79L443.17 1251.31Q443.17 1252.69 442.37 1253.47Q441.57 1254.25 440.14 1254.25Q438.79 1254.25 437.97 1253.43Q437.15 1252.61 437.15 1251.31L437.15 1251.01Q436.51 1252.57 435.04 1253.45Q433.57 1254.34 431.59 1254.34Q429.48 1254.34 427.78 1253.49Q426.07 1252.65 425.08 1251.14Q424.10 1249.62 424.10 1247.77Q424.10 1245.50 425.25 1244.19Q426.41 1242.89 428.98 1242.30Q431.55 1241.71 436.01 1241.71L437.10 1241.71L437.10 1240.95Q437.10 1239.18 436.33 1238.38Q435.55 1237.58 433.74 1237.58Q431.93 1237.58 428.52 1238.84Q427.55 1239.31 426.87 1239.31Q425.95 1239.31 425.40 1238.65Q424.85 1238 424.85 1236.95Q424.85 1236.11 425.23 1235.56Q425.61 1235.01 426.45 1234.55Q427.93 1233.75 430.05 1233.29Q432.18 1232.82 434.24 1232.82M432.98 1249.96Q434.83 1249.96 435.97 1248.72Q437.10 1247.47 437.10 1245.50L437.10 1244.78L436.39 1244.78Q432.98 1244.78 431.61 1245.33Q430.24 1245.87 430.24 1247.31Q430.24 1248.48 431.02 1249.22Q431.80 1249.96 432.98 1249.96M434.07 1262.59Q432.68 1262.59 431.82 1261.75Q430.96 1260.90 430.96 1259.56Q430.96 1258.21 431.82 1257.41Q432.68 1256.61 434.07 1256.61Q435.46 1256.61 436.33 1257.41Q437.19 1258.21 437.19 1259.56Q437.19 1260.90 436.33 1261.75Q435.46 1262.59 434.07 1262.59M431.46 1229.88Q430.79 1230.85 429.78 1230.85Q428.98 1230.85 428.39 1230.30Q427.80 1229.75 427.80 1228.99Q427.80 1228.32 428.26 1227.73L431.80 1223.18Q432.39 1222.47 432.92 1222.15Q433.44 1221.84 434.24 1221.84Q435.04 1221.84 435.57 1222.15Q436.09 1222.47 436.68 1223.22L440.22 1227.73Q440.68 1228.32 440.68 1228.95Q440.68 1229.71 440.07 1230.28Q439.46 1230.85 438.70 1230.85Q437.69 1230.85 437.02 1229.88L434.24 1225.75L431.46 1229.88M459.42 1249.62Q460.68 1249.71 461.27 1250.25Q461.86 1250.80 461.86 1251.85Q461.86 1253.07 460.89 1253.71Q459.92 1254.34 458.11 1254.21L456.93 1254.13Q449.57 1253.54 449.57 1246.42L449.57 1238.09L447.88 1238.09Q446.49 1238.09 445.78 1237.48Q445.06 1236.87 445.06 1235.73Q445.06 1234.55 445.78 1233.94Q446.49 1233.33 447.88 1233.33L449.57 1233.33L449.57 1230.05Q449.57 1228.66 450.43 1227.86Q451.29 1227.06 452.77 1227.06Q454.24 1227.06 455.08 1227.86Q455.92 1228.66 455.92 1230.05L455.92 1233.33L458.87 1233.33Q461.73 1233.33 461.73 1235.73Q461.73 1236.87 461.02 1237.48Q460.30 1238.09 458.87 1238.09L455.92 1238.09L455.92 1246.89Q455.92 1248.15 456.51 1248.80Q457.10 1249.45 458.24 1249.54L459.42 1249.62M500.51 1249.07Q501.48 1250.04 501.48 1251.18Q501.48 1252.36 500.57 1253.24Q499.66 1254.13 498.49 1254.13Q497.14 1254.13 496.09 1253.03L483.04 1240.28L483.04 1250.97Q483.04 1252.48 482.15 1253.37Q481.27 1254.25 479.75 1254.25Q478.24 1254.25 477.35 1253.37Q476.47 1252.48 476.47 1250.97L476.47 1227.35Q476.47 1225.88 477.35 1224.99Q478.24 1224.11 479.75 1224.11Q481.27 1224.11 482.15 1224.99Q483.04 1225.88 483.04 1227.35L483.04 1237.41L495.75 1225.08Q496.68 1224.15 497.85 1224.15Q499.03 1224.15 499.92 1225.01Q500.80 1225.88 500.80 1227.06Q500.80 1228.28 499.79 1229.25L489.77 1238.63L500.51 1249.07M517.60 1232.82Q524.80 1232.82 524.80 1241.54L524.80 1251.26Q524.80 1252.65 523.94 1253.45Q523.07 1254.25 521.60 1254.25Q520.13 1254.25 519.28 1253.45Q518.44 1252.65 518.44 1251.26L518.44 1241.45Q518.44 1239.60 517.66 1238.70Q516.88 1237.79 515.24 1237.79Q513.26 1237.79 512.06 1239.05Q510.86 1240.32 510.86 1242.42L510.86 1251.26Q510.86 1252.65 510.02 1253.45Q509.18 1254.25 507.71 1254.25Q506.23 1254.25 505.37 1253.45Q504.51 1252.65 504.51 1251.26L504.51 1227.01Q504.51 1225.71 505.41 1224.91Q506.32 1224.11 507.79 1224.11Q509.18 1224.11 510.02 1224.87Q510.86 1225.62 510.86 1226.89L510.86 1236.07Q511.96 1234.47 513.68 1233.64Q515.41 1232.82 517.60 1232.82M539.49 1254.34Q536.21 1254.34 533.72 1253.01Q531.24 1251.68 529.89 1249.26Q528.55 1246.84 528.55 1243.56Q528.55 1240.28 529.89 1237.85Q531.24 1235.43 533.72 1234.13Q536.21 1232.82 539.49 1232.82Q542.78 1232.82 545.26 1234.13Q547.74 1235.43 549.09 1237.85Q550.44 1240.28 550.44 1243.56Q550.44 1246.84 549.09 1249.26Q547.74 1251.68 545.26 1253.01Q542.78 1254.34 539.49 1254.34M539.49 1249.50Q544.12 1249.50 544.12 1243.56Q544.12 1240.57 542.92 1239.10Q541.72 1237.62 539.49 1237.62Q534.86 1237.62 534.86 1243.56Q534.86 1249.50 539.49 1249.50M536.71 1229.88Q536.04 1230.85 535.03 1230.85Q534.23 1230.85 533.64 1230.30Q533.05 1229.75 533.05 1228.99Q533.05 1228.32 533.51 1227.73L537.05 1223.18Q537.64 1222.47 538.17 1222.15Q538.69 1221.84 539.49 1221.84Q540.29 1221.84 540.82 1222.15Q541.34 1222.47 541.93 1223.22L545.47 1227.73Q545.93 1228.32 545.93 1228.95Q545.93 1229.71 545.32 1230.28Q544.71 1230.85 543.95 1230.85Q542.94 1230.85 542.27 1229.88L539.49 1225.75L536.71 1229.88M567.28 1232.82Q570.98 1232.82 572.79 1234.99Q574.60 1237.16 574.60 1241.54L574.60 1251.26Q574.60 1252.65 573.74 1253.45Q572.88 1254.25 571.40 1254.25Q569.93 1254.25 569.09 1253.45Q568.25 1252.65 568.25 1251.26L568.25 1241.83Q568.25 1239.73 567.47 1238.76Q566.69 1237.79 565.05 1237.79Q563.07 1237.79 561.87 1239.05Q560.67 1240.32 560.67 1242.42L560.67 1251.26Q560.67 1252.65 559.83 1253.45Q558.98 1254.25 557.51 1254.25Q556.04 1254.25 555.17 1253.45Q554.31 1252.65 554.31 1251.26L554.31 1235.81Q554.31 1234.51 555.22 1233.71Q556.12 1232.91 557.55 1232.91Q558.86 1232.91 559.68 1233.69Q560.50 1234.47 560.50 1235.69L560.50 1236.28Q561.59 1234.59 563.34 1233.71Q565.09 1232.82 567.28 1232.82M597.29 1232.91Q598.73 1232.91 599.59 1233.73Q600.45 1234.55 600.45 1235.90L600.45 1251.77Q600.45 1256.78 597.55 1259.35Q594.64 1261.91 589.04 1261.91Q584.33 1261.91 581.30 1260.23Q580.54 1259.81 580.12 1259.20Q579.70 1258.59 579.70 1257.83Q579.70 1256.78 580.20 1256.11Q580.71 1255.43 581.55 1255.43Q582.01 1255.43 582.64 1255.62Q583.28 1255.81 583.95 1256.06Q585.30 1256.57 586.43 1256.86Q587.57 1257.16 588.87 1257.16Q591.57 1257.16 592.87 1255.94Q594.18 1254.72 594.18 1252.23L594.18 1249.96Q593.30 1251.56 591.53 1252.48Q589.76 1253.41 587.57 1253.41Q584.88 1253.41 582.79 1252.15Q580.71 1250.88 579.53 1248.55Q578.35 1246.21 578.35 1243.14Q578.35 1240.06 579.53 1237.73Q580.71 1235.39 582.79 1234.11Q584.88 1232.82 587.57 1232.82Q589.72 1232.82 591.46 1233.73Q593.21 1234.63 594.14 1236.23L594.14 1235.81Q594.14 1234.47 595 1233.69Q595.86 1232.91 597.29 1232.91M589.42 1248.57Q591.65 1248.57 592.90 1247.14Q594.14 1245.71 594.14 1243.14Q594.14 1240.57 592.90 1239.12Q591.65 1237.67 589.42 1237.67Q587.19 1237.67 585.93 1239.12Q584.66 1240.57 584.66 1243.14Q584.66 1245.71 585.93 1247.14Q587.19 1248.57 589.42 1248.57M627.73 1254.21Q626.26 1254.21 625.35 1253.33Q624.45 1252.44 624.45 1250.97L624.45 1229.67L617.63 1229.67Q614.51 1229.67 614.51 1226.97Q614.51 1224.32 617.63 1224.32L637.84 1224.32Q640.95 1224.32 640.95 1226.97Q640.95 1229.67 637.84 1229.67L631.02 1229.67L631.02 1250.97Q631.02 1252.44 630.13 1253.33Q629.25 1254.21 627.73 1254.21M656.36 1232.82Q663.56 1232.82 663.56 1241.54L663.56 1251.26Q663.56 1252.65 662.70 1253.45Q661.83 1254.25 660.36 1254.25Q658.89 1254.25 658.04 1253.45Q657.20 1252.65 657.20 1251.26L657.20 1241.45Q657.20 1239.60 656.42 1238.70Q655.65 1237.79 654 1237.79Q652.02 1237.79 650.82 1239.05Q649.62 1240.32 649.62 1242.42L649.62 1251.26Q649.62 1252.65 648.78 1253.45Q647.94 1254.25 646.47 1254.25Q644.99 1254.25 644.13 1253.45Q643.27 1252.65 643.27 1251.26L643.27 1227.01Q643.27 1225.71 644.17 1224.91Q645.08 1224.11 646.55 1224.11Q647.94 1224.11 648.78 1224.87Q649.62 1225.62 649.62 1226.89L649.62 1236.07Q650.72 1234.47 652.45 1233.64Q654.17 1232.82 656.36 1232.82M684.90 1247.85Q685.75 1247.85 686.27 1248.53Q686.80 1249.20 686.80 1250.25Q686.80 1250.97 686.38 1251.58Q685.96 1252.19 685.20 1252.61Q683.77 1253.37 681.87 1253.85Q679.98 1254.34 678.38 1254.34Q675.01 1254.34 672.51 1253.03Q670 1251.73 668.65 1249.31Q667.31 1246.89 667.31 1243.60Q667.31 1240.44 668.61 1238Q669.92 1235.56 672.23 1234.19Q674.55 1232.82 677.50 1232.82Q680.32 1232.82 682.44 1234.07Q684.57 1235.31 685.75 1237.60Q686.93 1239.90 686.93 1242.97Q686.93 1243.90 686.48 1244.38Q686.04 1244.86 685.24 1244.86L673.45 1244.86Q673.75 1247.35 674.97 1248.46Q676.19 1249.58 678.46 1249.58Q679.68 1249.58 680.65 1249.28Q681.62 1248.99 682.80 1248.48Q683.39 1248.23 683.94 1248.04Q684.48 1247.85 684.90 1247.85M677.66 1237.20Q675.85 1237.20 674.76 1238.36Q673.66 1239.52 673.45 1241.71L681.58 1241.71Q681.45 1239.48 680.46 1238.34Q679.47 1237.20 677.66 1237.20M684.61 1225.67Q684.53 1226 684.08 1226.19Q683.64 1226.38 683.09 1226.38Q682.42 1226.38 681.94 1226.11Q681.45 1225.84 681.45 1225.29Q681.45 1224.53 681.98 1224.15Q682.50 1223.77 683.39 1223.44Q683.73 1223.31 683.98 1223.18Q684.23 1223.06 684.23 1222.93Q684.23 1222.68 683.89 1222.57Q683.56 1222.47 682.80 1222.47Q682.50 1222.47 681.83 1222.55Q681.07 1222.64 680.69 1222.64Q680.11 1222.64 679.73 1222.28Q679.35 1221.92 679.35 1221.46Q679.35 1220.83 680.11 1220.53Q681.45 1220.03 683.26 1220.03Q685.49 1220.03 686.76 1220.74Q688.02 1221.46 688.02 1222.55Q688.02 1223.35 687.51 1223.77Q687.01 1224.19 686.04 1224.57Q685.37 1224.87 685.03 1225.08Q684.69 1225.29 684.61 1225.67M674.30 1230.42Q673.75 1230.85 673.12 1230.85Q672.36 1230.85 671.79 1230.32Q671.22 1229.79 671.22 1229.08Q671.22 1228.15 672.27 1227.43L675.35 1225.33Q676.44 1224.61 677.50 1224.61Q678.42 1224.61 679.64 1225.33L682.72 1227.43Q683.77 1228.15 683.77 1229.08Q683.77 1229.79 683.18 1230.34Q682.59 1230.89 681.87 1230.89Q681.33 1230.89 680.82 1230.51L677.50 1227.98L674.30 1230.42M713.15 1254.21Q711.68 1254.21 710.78 1253.33Q709.87 1252.44 709.87 1250.97L709.87 1229.67L703.05 1229.67Q699.93 1229.67 699.93 1226.97Q699.93 1224.32 703.05 1224.32L723.26 1224.32Q726.37 1224.32 726.37 1226.97Q726.37 1229.67 723.26 1229.67L716.44 1229.67L716.44 1250.97Q716.44 1252.44 715.55 1253.33Q714.67 1254.21 713.15 1254.21M753.32 1230.13Q753.32 1232.19 752.03 1233.77Q750.75 1235.35 748.60 1235.94L748.60 1251.35Q748.60 1252.65 747.70 1253.45Q746.79 1254.25 745.36 1254.25Q744.01 1254.25 743.21 1253.49Q742.41 1252.74 742.41 1251.47L742.41 1251.05Q741.44 1252.65 739.87 1253.49Q738.29 1254.34 736.31 1254.34Q732.39 1254.34 730.48 1252.17Q728.56 1250 728.56 1245.62L728.56 1235.90Q728.56 1234.51 729.43 1233.71Q730.29 1232.91 731.76 1232.91Q733.24 1232.91 734.08 1233.71Q734.92 1234.51 734.92 1235.90L734.92 1245.75Q734.92 1247.60 735.68 1248.48Q736.44 1249.37 737.99 1249.37Q739.93 1249.37 741.09 1248.11Q742.24 1246.84 742.24 1244.78L742.24 1235.90Q742.24 1233.20 745.23 1232.91Q746.37 1232.87 746.94 1232.23Q747.51 1231.60 747.63 1230.26Q747.80 1228.78 748.56 1228.11Q749.32 1227.43 750.79 1227.43Q752.14 1227.43 752.73 1228.07Q753.32 1228.70 753.32 1230.13M732.27 1226.72Q730.92 1225.71 730.92 1224.45Q730.92 1223.39 731.70 1222.66Q732.48 1221.92 733.57 1221.92Q735.09 1221.92 736.10 1223.35L739.72 1228.19Q740.10 1228.74 740.10 1229.29Q740.10 1229.96 739.63 1230.42Q739.17 1230.89 738.50 1230.89Q737.95 1230.89 737.40 1230.47L732.27 1226.72M780.39 1254.38Q776.01 1254.38 772.73 1252.53Q769.44 1250.67 767.67 1247.22Q765.91 1243.77 765.91 1239.14Q765.91 1234.51 767.67 1231.08Q769.44 1227.65 772.73 1225.79Q776.01 1223.94 780.39 1223.94Q785.90 1223.94 789.90 1226.97Q790.53 1227.48 790.79 1227.98Q791.04 1228.49 791.04 1229.25Q791.04 1230.34 790.43 1231.12Q789.82 1231.90 788.93 1231.90Q788.34 1231.90 787.90 1231.75Q787.46 1231.60 786.91 1231.22Q785.23 1230.13 783.80 1229.65Q782.37 1229.16 780.72 1229.16Q776.68 1229.16 774.64 1231.67Q772.60 1234.17 772.60 1239.14Q772.60 1249.16 780.72 1249.16Q782.28 1249.16 783.67 1248.67Q785.06 1248.19 786.91 1247.10Q787.54 1246.72 787.97 1246.57Q788.39 1246.42 788.93 1246.42Q789.82 1246.42 790.43 1247.20Q791.04 1247.98 791.04 1249.07Q791.04 1249.83 790.77 1250.36Q790.49 1250.88 789.90 1251.35Q785.90 1254.38 780.39 1254.38M807.88 1232.82Q815.08 1232.82 815.08 1241.54L815.08 1251.26Q815.08 1252.65 814.21 1253.45Q813.35 1254.25 811.88 1254.25Q810.40 1254.25 809.56 1253.45Q808.72 1252.65 808.72 1251.26L808.72 1241.45Q808.72 1239.60 807.94 1238.70Q807.16 1237.79 805.52 1237.79Q803.54 1237.79 802.34 1239.05Q801.14 1240.32 801.14 1242.42L801.14 1251.26Q801.14 1252.65 800.30 1253.45Q799.46 1254.25 797.99 1254.25Q796.51 1254.25 795.65 1253.45Q794.79 1252.65 794.79 1251.26L794.79 1227.01Q794.79 1225.71 795.69 1224.91Q796.60 1224.11 798.07 1224.11Q799.46 1224.11 800.30 1224.87Q801.14 1225.62 801.14 1226.89L801.14 1236.07Q802.24 1234.47 803.96 1233.64Q805.69 1232.82 807.88 1232.82M829.77 1254.34Q826.49 1254.34 824 1253.01Q821.52 1251.68 820.17 1249.26Q818.82 1246.84 818.82 1243.56Q818.82 1240.28 820.17 1237.85Q821.52 1235.43 824 1234.13Q826.49 1232.82 829.77 1232.82Q833.05 1232.82 835.54 1234.13Q838.02 1235.43 839.37 1237.85Q840.72 1240.28 840.72 1243.56Q840.72 1246.84 839.37 1249.26Q838.02 1251.68 835.54 1253.01Q833.05 1254.34 829.77 1254.34M829.77 1249.50Q834.40 1249.50 834.40 1243.56Q834.40 1240.57 833.20 1239.10Q832 1237.62 829.77 1237.62Q825.14 1237.62 825.14 1243.56Q825.14 1249.50 829.77 1249.50M835.96 1226.21Q835.62 1226.38 835.24 1226.38Q834.65 1226.38 834.23 1225.96Q833.81 1225.54 833.81 1224.95Q833.81 1224.45 834.19 1223.94L836.51 1221.04Q837.31 1219.98 838.40 1219.98Q839.37 1219.98 840.09 1220.74Q840.80 1221.50 840.80 1222.47Q840.80 1223.81 839.24 1224.61L835.96 1226.21M826.57 1230.42Q826.02 1230.85 825.39 1230.85Q824.63 1230.85 824.07 1230.32Q823.50 1229.79 823.50 1229.08Q823.50 1228.15 824.55 1227.43L827.62 1225.33Q828.72 1224.61 829.77 1224.61Q830.70 1224.61 831.92 1225.33L834.99 1227.43Q836.04 1228.15 836.04 1229.08Q836.04 1229.79 835.45 1230.34Q834.86 1230.89 834.15 1230.89Q833.60 1230.89 833.10 1230.51L829.77 1227.98L826.57 1230.42M847.79 1254.25Q846.40 1254.25 845.50 1253.49Q844.59 1252.74 844.59 1251.26L844.59 1235.90Q844.59 1234.42 845.52 1233.67Q846.44 1232.91 847.79 1232.91Q849.14 1232.91 850.04 1233.67Q850.95 1234.42 850.95 1235.90L850.95 1251.26Q850.95 1252.74 850.04 1253.49Q849.14 1254.25 847.79 1254.25M847.79 1229.54Q846.11 1229.54 845.14 1228.68Q844.17 1227.81 844.17 1226.34Q844.17 1224.87 845.14 1224.02Q846.11 1223.18 847.79 1223.18Q849.43 1223.18 850.42 1224.05Q851.41 1224.91 851.41 1226.34Q851.41 1227.81 850.44 1228.68Q849.47 1229.54 847.79 1229.54" fill="#eaf4fa"/>
    <path d="M243.49 1290.89Q244.02 1290.89 244.35 1291.24Q244.67 1291.59 244.67 1292.14L244.67 1306.87Q244.67 1307.42 244.33 1307.77Q244 1308.12 243.47 1308.12Q242.84 1308.12 242.50 1307.64L233.05 1295.18L233.05 1306.87Q233.05 1307.42 232.73 1307.77Q232.40 1308.12 231.87 1308.12Q231.34 1308.12 231.03 1307.78Q230.72 1307.45 230.72 1306.87L230.72 1292.14Q230.72 1291.59 231.05 1291.24Q231.39 1290.89 231.92 1290.89Q232.55 1290.89 232.89 1291.37L242.33 1303.85L242.33 1292.14Q242.33 1291.59 242.65 1291.24Q242.96 1290.89 243.49 1290.89M258.07 1296Q258.62 1296 258.95 1296.32Q259.28 1296.65 259.28 1297.18L259.28 1307.06Q259.28 1309.76 257.84 1311.13Q256.41 1312.51 253.61 1312.51Q251.01 1312.51 249.27 1311.52Q248.38 1311.01 248.38 1310.31Q248.38 1309.90 248.61 1309.64Q248.84 1309.37 249.18 1309.37Q249.49 1309.37 250.17 1309.74Q251.03 1310.14 251.78 1310.37Q252.53 1310.60 253.56 1310.60Q256.89 1310.60 256.89 1307.25L256.89 1305.40Q256.38 1306.46 255.35 1307.05Q254.31 1307.64 252.94 1307.64Q251.39 1307.64 250.19 1306.92Q248.98 1306.19 248.32 1304.87Q247.66 1303.54 247.66 1301.81Q247.66 1300.07 248.33 1298.75Q249.01 1297.42 250.20 1296.69Q251.39 1295.95 252.94 1295.95Q254.29 1295.95 255.31 1296.53Q256.34 1297.11 256.87 1298.17L256.87 1297.15Q256.87 1296.62 257.19 1296.31Q257.52 1296 258.07 1296M253.52 1305.71Q255.08 1305.71 255.97 1304.67Q256.87 1303.64 256.87 1301.81Q256.87 1300 255.99 1298.95Q255.11 1297.90 253.52 1297.90Q251.92 1297.90 251.02 1298.94Q250.12 1299.97 250.12 1301.81Q250.12 1303.64 251.03 1304.67Q251.95 1305.71 253.52 1305.71M275.78 1294.07Q275.78 1295.37 275.02 1296.28Q274.27 1297.18 272.99 1297.40L272.99 1306.99Q272.99 1307.49 272.65 1307.81Q272.31 1308.12 271.76 1308.12Q271.25 1308.12 270.94 1307.82Q270.63 1307.52 270.63 1307.01L270.63 1306.10Q270.07 1307.11 269.10 1307.64Q268.12 1308.17 266.92 1308.17Q262.63 1308.17 262.63 1303.45L262.63 1297.18Q262.63 1296.62 262.95 1296.31Q263.28 1296 263.85 1296Q264.41 1296 264.73 1296.31Q265.06 1296.62 265.06 1297.18L265.06 1303.42Q265.06 1304.84 265.64 1305.52Q266.22 1306.19 267.42 1306.19Q268.84 1306.19 269.70 1305.28Q270.55 1304.36 270.55 1302.84L270.55 1297.18Q270.55 1296.12 271.74 1296Q272.65 1296 273.08 1295.54Q273.52 1295.08 273.59 1294.05Q273.69 1292.91 274.77 1292.91Q275.30 1292.91 275.54 1293.19Q275.78 1293.47 275.78 1294.07M285.66 1297.25Q286.63 1298.02 287.16 1299.28Q287.69 1300.53 287.69 1302.07Q287.69 1303.90 286.98 1305.29Q286.27 1306.67 284.95 1307.42Q283.64 1308.17 281.91 1308.17Q280.17 1308.17 278.86 1307.42Q277.54 1306.67 276.83 1305.29Q276.12 1303.90 276.12 1302.07Q276.12 1300.22 276.83 1298.83Q277.54 1297.44 278.86 1296.70Q280.17 1295.95 281.91 1295.95Q282.39 1295.95 283.01 1296.05Q283.54 1296.09 283.69 1296.09Q284.65 1296.09 285.13 1295.62Q285.62 1295.15 285.71 1294.07Q285.76 1293.47 286.06 1293.20Q286.36 1292.94 286.89 1292.94Q287.42 1292.94 287.67 1293.21Q287.91 1293.49 287.91 1294.09Q287.91 1295.20 287.32 1296.03Q286.73 1296.87 285.66 1297.25M281.91 1306.24Q283.52 1306.24 284.38 1305.18Q285.23 1304.12 285.23 1302.07Q285.23 1300.05 284.36 1298.97Q283.50 1297.90 281.91 1297.90Q280.31 1297.90 279.45 1298.97Q278.58 1300.05 278.58 1302.07Q278.58 1304.12 279.43 1305.18Q280.29 1306.24 281.91 1306.24M278.15 1291.78Q277.57 1291.30 277.57 1290.74Q277.57 1290.31 277.88 1290.01Q278.19 1289.71 278.65 1289.71Q279.30 1289.71 279.76 1290.33L282.36 1293.73Q282.53 1293.93 282.53 1294.17Q282.53 1294.43 282.33 1294.62Q282.12 1294.82 281.86 1294.82Q281.59 1294.82 281.40 1294.65L278.15 1291.78M291.62 1308.12Q291.09 1308.12 290.74 1307.83Q290.39 1307.54 290.39 1306.96L290.39 1297.18Q290.39 1296.60 290.74 1296.30Q291.09 1296 291.62 1296Q292.15 1296 292.49 1296.30Q292.82 1296.60 292.82 1297.18L292.82 1306.96Q292.82 1307.54 292.49 1307.83Q292.15 1308.12 291.62 1308.12M291.62 1293.64Q290.92 1293.64 290.51 1293.25Q290.10 1292.87 290.10 1292.24Q290.10 1291.61 290.51 1291.24Q290.92 1290.86 291.62 1290.86Q292.29 1290.86 292.71 1291.24Q293.14 1291.61 293.14 1292.24Q293.14 1292.87 292.73 1293.25Q292.32 1293.64 291.62 1293.64M308.34 1306.26Q308.87 1306.31 309.10 1306.54Q309.33 1306.77 309.33 1307.18Q309.33 1307.66 308.96 1307.92Q308.58 1308.17 307.86 1308.12L307.21 1308.07Q305.26 1307.93 304.29 1306.88Q303.33 1305.83 303.33 1303.78L303.33 1298.12L301.88 1298.12Q300.82 1298.12 300.82 1297.18Q300.82 1296.75 301.10 1296.49Q301.38 1296.24 301.88 1296.24L303.33 1296.24L303.33 1293.76Q303.33 1293.20 303.66 1292.89Q303.98 1292.58 304.54 1292.58Q305.09 1292.58 305.43 1292.89Q305.76 1293.20 305.76 1293.76L305.76 1296.24L308.15 1296.24Q308.66 1296.24 308.93 1296.49Q309.21 1296.75 309.21 1297.18Q309.21 1297.64 308.93 1297.88Q308.66 1298.12 308.15 1298.12L305.76 1298.12L305.76 1303.95Q305.76 1305.08 306.23 1305.61Q306.70 1306.14 307.67 1306.22L308.34 1306.26M317.26 1296Q318.42 1295.93 318.42 1296.99Q318.42 1297.52 318.15 1297.78Q317.89 1298.05 317.24 1298.09L316.51 1298.17Q314.99 1298.31 314.26 1299.23Q313.52 1300.14 313.52 1301.44L313.52 1306.96Q313.52 1307.54 313.19 1307.83Q312.85 1308.12 312.32 1308.12Q311.79 1308.12 311.44 1307.83Q311.09 1307.54 311.09 1306.96L311.09 1297.15Q311.09 1296.60 311.44 1296.30Q311.79 1296 312.32 1296Q312.80 1296 313.13 1296.30Q313.45 1296.60 313.45 1297.13L313.45 1298.29Q313.93 1297.23 314.85 1296.67Q315.77 1296.12 316.92 1296.02L317.26 1296M329.12 1305.04Q329.45 1305.04 329.67 1305.30Q329.89 1305.57 329.89 1305.98Q329.89 1306.67 329.02 1307.16Q328.18 1307.64 327.18 1307.90Q326.18 1308.17 325.26 1308.17Q322.47 1308.17 320.85 1306.54Q319.24 1304.92 319.24 1302.10Q319.24 1300.29 319.95 1298.89Q320.66 1297.49 321.95 1296.72Q323.24 1295.95 324.88 1295.95Q327.24 1295.95 328.61 1297.47Q329.98 1298.99 329.98 1301.57Q329.98 1302.53 329.12 1302.53L321.67 1302.53Q321.91 1306.26 325.26 1306.26Q326.15 1306.26 326.80 1306.02Q327.45 1305.78 328.18 1305.40Q328.25 1305.35 328.57 1305.19Q328.90 1305.04 329.12 1305.04M324.92 1297.73Q323.53 1297.73 322.68 1298.63Q321.84 1299.52 321.67 1301.13L327.89 1301.13Q327.82 1299.49 327.06 1298.61Q326.30 1297.73 324.92 1297.73M323.04 1294.36Q322.78 1294.79 322.30 1294.79Q321.96 1294.79 321.71 1294.55Q321.45 1294.31 321.45 1293.97Q321.45 1293.71 321.65 1293.44L323.82 1290.33Q324.06 1290.02 324.30 1289.86Q324.54 1289.71 324.88 1289.71Q325.21 1289.71 325.45 1289.85Q325.69 1290 325.94 1290.33L328.10 1293.44Q328.30 1293.71 328.30 1293.97Q328.30 1294.31 328.04 1294.55Q327.79 1294.79 327.45 1294.79Q327 1294.79 326.71 1294.36L324.88 1291.47L323.04 1294.36M339 1295.95Q343.22 1295.95 343.22 1300.70L343.22 1306.96Q343.22 1307.52 342.89 1307.82Q342.56 1308.12 341.99 1308.12Q341.43 1308.12 341.11 1307.81Q340.78 1307.49 340.78 1306.96L340.78 1300.82Q340.78 1299.32 340.19 1298.63Q339.60 1297.93 338.35 1297.93Q336.88 1297.93 335.99 1298.84Q335.09 1299.76 335.09 1301.30L335.09 1306.96Q335.09 1307.49 334.77 1307.81Q334.44 1308.12 333.89 1308.12Q333.33 1308.12 333 1307.81Q332.66 1307.49 332.66 1306.96L332.66 1297.15Q332.66 1296.65 333.01 1296.32Q333.36 1296 333.89 1296Q334.42 1296 334.73 1296.31Q335.05 1296.62 335.05 1297.13L335.05 1298.12Q335.62 1297.06 336.66 1296.50Q337.70 1295.95 339 1295.95M359.22 1295.95Q360.76 1295.95 361.94 1296.70Q363.12 1297.44 363.78 1298.82Q364.45 1300.19 364.45 1302.02Q364.45 1303.83 363.78 1305.23Q363.12 1306.63 361.93 1307.40Q360.74 1308.17 359.22 1308.17Q357.89 1308.17 356.88 1307.60Q355.87 1307.04 355.34 1305.98L355.34 1306.94Q355.34 1307.47 355.01 1307.80Q354.69 1308.12 354.13 1308.12Q353.58 1308.12 353.24 1307.80Q352.90 1307.47 352.90 1306.94L352.90 1292.05Q352.90 1291.52 353.25 1291.20Q353.60 1290.89 354.16 1290.89Q354.69 1290.89 355.01 1291.19Q355.34 1291.49 355.34 1292L355.34 1298.17Q355.87 1297.11 356.88 1296.53Q357.89 1295.95 359.22 1295.95M358.64 1306.24Q360.21 1306.24 361.09 1305.13Q361.97 1304.02 361.97 1302.02Q361.97 1300.05 361.10 1298.97Q360.23 1297.90 358.64 1297.90Q357.05 1297.90 356.19 1298.99Q355.34 1300.07 355.34 1302.07Q355.34 1304.07 356.19 1305.16Q357.05 1306.24 358.64 1306.24M372.09 1295.95Q374.43 1295.95 375.57 1297.13Q376.71 1298.31 376.71 1300.72L376.71 1306.96Q376.71 1307.52 376.40 1307.82Q376.09 1308.12 375.53 1308.12Q375 1308.12 374.69 1307.81Q374.38 1307.49 374.38 1306.96L374.38 1306.07Q373.92 1307.08 373.02 1307.63Q372.11 1308.17 370.91 1308.17Q369.75 1308.17 368.80 1307.70Q367.85 1307.23 367.29 1306.41Q366.74 1305.59 366.74 1304.55Q366.71 1303.25 367.39 1302.52Q368.06 1301.78 369.58 1301.46Q371.10 1301.13 373.80 1301.13L374.35 1301.13L374.35 1300.43Q374.35 1299.08 373.80 1298.48Q373.24 1297.88 372.02 1297.88Q371.17 1297.88 370.42 1298.09Q369.68 1298.31 368.79 1298.72Q368.14 1299.08 367.87 1299.08Q367.51 1299.08 367.28 1298.82Q367.05 1298.55 367.05 1298.14Q367.05 1297.78 367.26 1297.50Q367.46 1297.23 367.92 1296.96Q368.76 1296.50 369.89 1296.23Q371.03 1295.95 372.09 1295.95M371.34 1306.36Q372.67 1306.36 373.51 1305.46Q374.35 1304.55 374.35 1303.13L374.35 1302.51L373.92 1302.51Q372.04 1302.51 371.03 1302.67Q370.01 1302.84 369.58 1303.24Q369.15 1303.64 369.15 1304.38Q369.15 1305.25 369.77 1305.81Q370.40 1306.36 371.34 1306.36M368.33 1291.78Q367.75 1291.30 367.75 1290.74Q367.75 1290.31 368.06 1290.01Q368.38 1289.71 368.83 1289.71Q369.48 1289.71 369.94 1290.33L372.55 1293.73Q372.71 1293.93 372.71 1294.17Q372.71 1294.43 372.51 1294.62Q372.30 1294.82 372.04 1294.82Q371.77 1294.82 371.58 1294.65L368.33 1291.78M386.38 1295.95Q390.60 1295.95 390.60 1300.70L390.60 1306.96Q390.60 1307.52 390.27 1307.82Q389.95 1308.12 389.37 1308.12Q388.81 1308.12 388.49 1307.81Q388.16 1307.49 388.16 1306.96L388.16 1300.82Q388.16 1299.32 387.57 1298.63Q386.98 1297.93 385.73 1297.93Q384.26 1297.93 383.37 1298.84Q382.47 1299.76 382.47 1301.30L382.47 1306.96Q382.47 1307.49 382.15 1307.81Q381.82 1308.12 381.27 1308.12Q380.72 1308.12 380.38 1307.81Q380.04 1307.49 380.04 1306.96L380.04 1297.15Q380.04 1296.65 380.39 1296.32Q380.74 1296 381.27 1296Q381.80 1296 382.11 1296.31Q382.43 1296.62 382.43 1297.13L382.43 1298.12Q383 1297.06 384.04 1296.50Q385.08 1295.95 386.38 1295.95M413.78 1295.95Q417.73 1295.95 417.73 1300.70L417.73 1306.96Q417.73 1307.52 417.40 1307.82Q417.06 1308.12 416.50 1308.12Q415.97 1308.12 415.64 1307.82Q415.30 1307.52 415.30 1306.96L415.30 1300.72Q415.30 1299.25 414.77 1298.59Q414.24 1297.93 413.11 1297.93Q411.78 1297.93 411.01 1298.83Q410.24 1299.73 410.24 1301.30L410.24 1306.96Q410.24 1307.52 409.90 1307.82Q409.56 1308.12 409.01 1308.12Q408.48 1308.12 408.14 1307.82Q407.80 1307.52 407.80 1306.96L407.80 1300.72Q407.80 1299.25 407.27 1298.59Q406.74 1297.93 405.61 1297.93Q404.29 1297.93 403.50 1298.83Q402.72 1299.73 402.72 1301.30L402.72 1306.96Q402.72 1307.52 402.38 1307.82Q402.04 1308.12 401.51 1308.12Q400.98 1308.12 400.63 1307.82Q400.28 1307.52 400.28 1306.96L400.28 1297.15Q400.28 1296.62 400.65 1296.31Q401.01 1296 401.51 1296Q402.02 1296 402.34 1296.30Q402.67 1296.60 402.67 1297.13L402.67 1298.02Q403.20 1297.01 404.14 1296.48Q405.08 1295.95 406.31 1295.95Q407.66 1295.95 408.54 1296.50Q409.42 1297.06 409.85 1298.22Q410.38 1297.18 411.42 1296.56Q412.45 1295.95 413.78 1295.95M426.17 1308.17Q424.43 1308.17 423.12 1307.42Q421.81 1306.67 421.09 1305.29Q420.38 1303.90 420.38 1302.07Q420.38 1300.22 421.09 1298.83Q421.81 1297.44 423.12 1296.70Q424.43 1295.95 426.17 1295.95Q427.90 1295.95 429.22 1296.70Q430.53 1297.44 431.24 1298.83Q431.95 1300.22 431.95 1302.07Q431.95 1303.90 431.24 1305.29Q430.53 1306.67 429.22 1307.42Q427.90 1308.17 426.17 1308.17M426.17 1306.24Q427.78 1306.24 428.64 1305.18Q429.49 1304.12 429.49 1302.07Q429.49 1300.05 428.63 1298.97Q427.76 1297.90 426.17 1297.90Q424.58 1297.90 423.71 1298.97Q422.84 1300.05 422.84 1302.07Q422.84 1304.12 423.70 1305.18Q424.55 1306.24 426.17 1306.24M429.69 1291.90Q429.66 1292.09 429.47 1292.20Q429.28 1292.31 429.04 1292.31Q428.75 1292.31 428.53 1292.15Q428.31 1292 428.31 1291.68Q428.31 1291.27 428.59 1291.07Q428.87 1290.86 429.35 1290.65Q429.90 1290.43 429.90 1290.24Q429.90 1289.88 428.94 1289.88Q428.58 1289.88 427.71 1290.02Q427.37 1290.07 427.17 1289.90Q426.96 1289.73 426.96 1289.49Q426.96 1289.11 427.37 1288.94Q428.17 1288.65 429.08 1288.65Q430.24 1288.65 430.92 1289.06Q431.59 1289.47 431.59 1290.12Q431.59 1290.58 431.30 1290.82Q431.01 1291.06 430.48 1291.27Q430.10 1291.44 429.92 1291.56Q429.73 1291.68 429.69 1291.90M424.17 1294.58Q423.95 1294.79 423.61 1294.79Q423.28 1294.79 423.03 1294.55Q422.79 1294.31 422.79 1294Q422.79 1293.59 423.18 1293.30L425.18 1291.47Q425.66 1291.08 426.17 1291.08Q426.63 1291.08 427.16 1291.47L429.16 1293.30Q429.57 1293.61 429.57 1294.02Q429.57 1294.34 429.31 1294.58Q429.06 1294.82 428.72 1294.82Q428.46 1294.82 428.19 1294.60L426.17 1292.60L424.17 1294.58M446.05 1308.17Q444.34 1308.17 443.05 1307.42Q441.76 1306.67 441.05 1305.30Q440.34 1303.93 440.34 1302.12Q440.34 1300.29 441.07 1298.89Q441.81 1297.49 443.13 1296.72Q444.46 1295.95 446.17 1295.95Q447.09 1295.95 448.01 1296.22Q448.94 1296.48 449.67 1296.94Q450.44 1297.47 450.44 1298.17Q450.44 1298.58 450.22 1298.85Q450 1299.13 449.67 1299.13Q449.45 1299.13 449.23 1299.02Q449.01 1298.91 448.68 1298.70Q448.07 1298.31 447.56 1298.11Q447.04 1297.90 446.32 1297.90Q444.68 1297.90 443.77 1299.01Q442.87 1300.12 442.87 1302.10Q442.87 1304.07 443.76 1305.14Q444.65 1306.22 446.29 1306.22Q447.01 1306.22 447.57 1306Q448.12 1305.78 448.70 1305.42Q448.97 1305.25 449.23 1305.13Q449.50 1305.01 449.71 1305.01Q450.05 1305.01 450.27 1305.29Q450.48 1305.57 450.48 1305.98Q450.48 1306.31 450.30 1306.59Q450.12 1306.87 449.69 1307.16Q448.97 1307.64 448 1307.90Q447.04 1308.17 446.05 1308.17M459.02 1295.95Q463.21 1295.95 463.21 1300.70L463.21 1306.96Q463.21 1307.49 462.87 1307.81Q462.53 1308.12 461.98 1308.12Q461.43 1308.12 461.10 1307.81Q460.78 1307.49 460.78 1306.96L460.78 1300.72Q460.78 1299.28 460.18 1298.60Q459.59 1297.93 458.34 1297.93Q456.87 1297.93 455.98 1298.84Q455.09 1299.76 455.09 1301.30L455.09 1306.96Q455.09 1307.49 454.76 1307.81Q454.44 1308.12 453.88 1308.12Q453.33 1308.12 452.99 1307.81Q452.65 1307.49 452.65 1306.96L452.65 1292.05Q452.65 1291.52 453 1291.20Q453.35 1290.89 453.91 1290.89Q454.44 1290.89 454.76 1291.19Q455.09 1291.49 455.09 1292L455.09 1298.02Q455.69 1297.01 456.70 1296.48Q457.71 1295.95 459.02 1295.95M467.76 1308.12Q467.23 1308.12 466.88 1307.83Q466.54 1307.54 466.54 1306.96L466.54 1297.18Q466.54 1296.60 466.88 1296.30Q467.23 1296 467.76 1296Q468.29 1296 468.63 1296.30Q468.97 1296.60 468.97 1297.18L468.97 1306.96Q468.97 1307.54 468.63 1307.83Q468.29 1308.12 467.76 1308.12M468.27 1294.65Q468.08 1294.82 467.81 1294.82Q467.55 1294.82 467.34 1294.62Q467.14 1294.43 467.14 1294.17Q467.14 1293.93 467.31 1293.73L469.91 1290.33Q470.39 1289.68 471.02 1289.68Q471.48 1289.68 471.79 1290Q472.10 1290.31 472.10 1290.74Q472.10 1291.30 471.52 1291.78L468.27 1294.65M478.71 1295.95Q482.92 1295.95 482.92 1300.70L482.92 1306.96Q482.92 1307.52 482.60 1307.82Q482.27 1308.12 481.69 1308.12Q481.14 1308.12 480.81 1307.81Q480.49 1307.49 480.49 1306.96L480.49 1300.82Q480.49 1299.32 479.90 1298.63Q479.31 1297.93 478.06 1297.93Q476.59 1297.93 475.69 1298.84Q474.80 1299.76 474.80 1301.30L474.80 1306.96Q474.80 1307.49 474.48 1307.81Q474.15 1308.12 473.60 1308.12Q473.04 1308.12 472.70 1307.81Q472.37 1307.49 472.37 1306.96L472.37 1297.15Q472.37 1296.65 472.72 1296.32Q473.07 1296 473.60 1296Q474.13 1296 474.44 1296.31Q474.75 1296.62 474.75 1297.13L474.75 1298.12Q475.33 1297.06 476.37 1296.50Q477.40 1295.95 478.71 1295.95M492.61 1295.95Q496.80 1295.95 496.80 1300.70L496.80 1306.96Q496.80 1307.49 496.47 1307.81Q496.13 1308.12 495.58 1308.12Q495.02 1308.12 494.70 1307.81Q494.37 1307.49 494.37 1306.96L494.37 1300.72Q494.37 1299.28 493.78 1298.60Q493.19 1297.93 491.94 1297.93Q490.47 1297.93 489.57 1298.84Q488.68 1299.76 488.68 1301.30L488.68 1306.96Q488.68 1307.49 488.36 1307.81Q488.03 1308.12 487.48 1308.12Q486.92 1308.12 486.59 1307.81Q486.25 1307.49 486.25 1306.96L486.25 1292.05Q486.25 1291.52 486.60 1291.20Q486.95 1290.89 487.50 1290.89Q488.03 1290.89 488.36 1291.19Q488.68 1291.49 488.68 1292L488.68 1298.02Q489.29 1297.01 490.30 1296.48Q491.31 1295.95 492.61 1295.95M507.72 1308.12Q507.19 1308.12 506.84 1307.83Q506.49 1307.54 506.49 1306.96L506.49 1292.07Q506.49 1291.49 506.84 1291.19Q507.19 1290.89 507.72 1290.89Q508.25 1290.89 508.59 1291.19Q508.93 1291.49 508.93 1292.07L508.93 1306.96Q508.93 1307.54 508.59 1307.83Q508.25 1308.12 507.72 1308.12M517.27 1295.95Q519.60 1295.95 520.75 1297.13Q521.89 1298.31 521.89 1300.72L521.89 1306.96Q521.89 1307.52 521.58 1307.82Q521.27 1308.12 520.71 1308.12Q520.18 1308.12 519.87 1307.81Q519.56 1307.49 519.56 1306.96L519.56 1306.07Q519.10 1307.08 518.19 1307.63Q517.29 1308.17 516.08 1308.17Q514.93 1308.17 513.98 1307.70Q513.02 1307.23 512.47 1306.41Q511.92 1305.59 511.92 1304.55Q511.89 1303.25 512.57 1302.52Q513.24 1301.78 514.76 1301.46Q516.28 1301.13 518.98 1301.13L519.53 1301.13L519.53 1300.43Q519.53 1299.08 518.98 1298.48Q518.42 1297.88 517.19 1297.88Q516.35 1297.88 515.60 1298.09Q514.86 1298.31 513.96 1298.72Q513.31 1299.08 513.05 1299.08Q512.69 1299.08 512.46 1298.82Q512.23 1298.55 512.23 1298.14Q512.23 1297.78 512.43 1297.50Q512.64 1297.23 513.10 1296.96Q513.94 1296.50 515.07 1296.23Q516.21 1295.95 517.27 1295.95M516.52 1306.36Q517.84 1306.36 518.69 1305.46Q519.53 1304.55 519.53 1303.13L519.53 1302.51L519.10 1302.51Q517.22 1302.51 516.21 1302.67Q515.19 1302.84 514.76 1303.24Q514.33 1303.64 514.33 1304.38Q514.33 1305.25 514.95 1305.81Q515.58 1306.36 516.52 1306.36M513.51 1291.78Q512.93 1291.30 512.93 1290.74Q512.93 1290.31 513.24 1290.01Q513.55 1289.71 514.01 1289.71Q514.66 1289.71 515.12 1290.33L517.72 1293.73Q517.89 1293.93 517.89 1294.17Q517.89 1294.43 517.69 1294.62Q517.48 1294.82 517.22 1294.82Q516.95 1294.82 516.76 1294.65L513.51 1291.78M541.46 1306.10Q541.90 1306.46 541.90 1306.99Q541.90 1307.45 541.58 1307.78Q541.27 1308.12 540.84 1308.12Q540.38 1308.12 540.02 1307.78L534.02 1302.48L534.02 1306.94Q534.02 1307.52 533.68 1307.82Q533.34 1308.12 532.81 1308.12Q532.28 1308.12 531.93 1307.82Q531.58 1307.52 531.58 1306.94L531.58 1292.07Q531.58 1291.49 531.93 1291.19Q532.28 1290.89 532.81 1290.89Q533.34 1290.89 533.68 1291.19Q534.02 1291.49 534.02 1292.07L534.02 1301.52L539.51 1296.38Q539.92 1296.02 540.31 1296.02Q540.76 1296.02 541.10 1296.36Q541.44 1296.70 541.44 1297.15Q541.44 1297.61 541.03 1298L536.74 1301.93L541.46 1306.10M553.25 1305.04Q553.58 1305.04 553.80 1305.30Q554.02 1305.57 554.02 1305.98Q554.02 1306.67 553.15 1307.16Q552.31 1307.64 551.31 1307.90Q550.31 1308.17 549.39 1308.17Q546.60 1308.17 544.98 1306.54Q543.37 1304.92 543.37 1302.10Q543.37 1300.29 544.08 1298.89Q544.79 1297.49 546.08 1296.72Q547.37 1295.95 549.01 1295.95Q551.37 1295.95 552.74 1297.47Q554.11 1298.99 554.11 1301.57Q554.11 1302.53 553.25 1302.53L545.80 1302.53Q546.04 1306.26 549.39 1306.26Q550.28 1306.26 550.93 1306.02Q551.58 1305.78 552.31 1305.40Q552.38 1305.35 552.70 1305.19Q553.03 1305.04 553.25 1305.04M549.05 1297.73Q547.66 1297.73 546.81 1298.63Q545.97 1299.52 545.80 1301.13L552.02 1301.13Q551.95 1299.49 551.19 1298.61Q550.43 1297.73 549.05 1297.73M549.75 1294.17Q549.73 1294.48 549.51 1294.65Q549.29 1294.82 549.03 1294.82Q548.74 1294.82 548.54 1294.61Q548.33 1294.41 548.33 1294.05Q548.33 1293.56 548.57 1293.21Q548.81 1292.87 549.25 1292.48Q549.54 1292.21 549.68 1292.02Q549.82 1291.83 549.82 1291.61Q549.82 1291.35 549.58 1291.19Q549.34 1291.03 548.91 1291.03Q548.40 1291.03 547.75 1291.25Q547.41 1291.35 547.21 1291.15Q547.01 1290.96 547.01 1290.67Q547.01 1290.48 547.13 1290.31Q547.25 1290.14 547.46 1290.05Q548.19 1289.73 549.08 1289.73Q550.28 1289.73 550.96 1290.21Q551.63 1290.70 551.63 1291.42Q551.63 1291.95 551.38 1292.29Q551.13 1292.62 550.62 1293.06Q550.21 1293.37 550.01 1293.60Q549.80 1293.83 549.75 1294.17M575.40 1293.01Q575.88 1293.01 576.14 1293.25Q576.41 1293.49 576.41 1293.90Q576.41 1294.31 576.14 1294.55Q575.88 1294.79 575.40 1294.79L574 1294.79L574 1306.94Q574 1307.49 573.67 1307.81Q573.35 1308.12 572.79 1308.12Q572.24 1308.12 571.91 1307.81Q571.59 1307.49 571.59 1306.94L571.59 1305.98Q571.06 1307.04 570.04 1307.60Q569.03 1308.17 567.71 1308.17Q566.19 1308.17 565 1307.40Q563.80 1306.63 563.14 1305.23Q562.48 1303.83 562.48 1302.02Q562.48 1300.19 563.14 1298.82Q563.80 1297.44 564.98 1296.70Q566.16 1295.95 567.71 1295.95Q569.03 1295.95 570.03 1296.52Q571.03 1297.08 571.56 1298.12L571.56 1294.79L567.78 1294.79Q567.27 1294.79 567.01 1294.55Q566.74 1294.31 566.74 1293.90Q566.74 1293.49 567.01 1293.25Q567.27 1293.01 567.78 1293.01L571.56 1293.01L571.56 1292Q571.56 1291.49 571.89 1291.19Q572.21 1290.89 572.77 1290.89Q573.32 1290.89 573.66 1291.20Q574 1291.52 574 1292.05L574 1293.01L575.40 1293.01M568.29 1306.24Q569.85 1306.24 570.72 1305.16Q571.59 1304.07 571.59 1302.07Q571.59 1300.07 570.73 1298.99Q569.88 1297.90 568.29 1297.90Q566.69 1297.90 565.82 1298.97Q564.94 1300.05 564.94 1302.02Q564.94 1304 565.83 1305.12Q566.72 1306.24 568.29 1306.24M582.34 1295.95Q584.67 1295.95 585.82 1297.13Q586.96 1298.31 586.96 1300.72L586.96 1306.96Q586.96 1307.52 586.65 1307.82Q586.34 1308.12 585.78 1308.12Q585.25 1308.12 584.94 1307.81Q584.63 1307.49 584.63 1306.96L584.63 1306.07Q584.17 1307.08 583.26 1307.63Q582.36 1308.17 581.15 1308.17Q580 1308.17 579.05 1307.70Q578.09 1307.23 577.54 1306.41Q576.99 1305.59 576.99 1304.55Q576.96 1303.25 577.64 1302.52Q578.31 1301.78 579.83 1301.46Q581.35 1301.13 584.05 1301.13L584.60 1301.13L584.60 1300.43Q584.60 1299.08 584.05 1298.48Q583.49 1297.88 582.26 1297.88Q581.42 1297.88 580.67 1298.09Q579.93 1298.31 579.03 1298.72Q578.38 1299.08 578.12 1299.08Q577.76 1299.08 577.53 1298.82Q577.30 1298.55 577.30 1298.14Q577.30 1297.78 577.50 1297.50Q577.71 1297.23 578.17 1296.96Q579.01 1296.50 580.14 1296.23Q581.28 1295.95 582.34 1295.95M581.59 1306.36Q582.91 1306.36 583.76 1305.46Q584.60 1304.55 584.60 1303.13L584.60 1302.51L584.17 1302.51Q582.29 1302.51 581.28 1302.67Q580.26 1302.84 579.83 1303.24Q579.40 1303.64 579.40 1304.38Q579.40 1305.25 580.02 1305.81Q580.65 1306.36 581.59 1306.36M584.07 1293.83Q583.61 1293.83 583.18 1293.62Q582.75 1293.42 582.14 1293.03Q581.66 1292.72 581.34 1292.56Q581.01 1292.41 580.72 1292.41Q580.31 1292.41 580.08 1292.61Q579.85 1292.82 579.64 1293.18Q579.47 1293.44 579.34 1293.59Q579.20 1293.73 579.01 1293.73Q578.74 1293.73 578.59 1293.54Q578.43 1293.35 578.43 1293.03Q578.43 1292.58 578.71 1292.01Q578.99 1291.44 579.48 1291.05Q579.97 1290.65 580.60 1290.65Q581.06 1290.65 581.50 1290.86Q581.95 1291.08 582.53 1291.47Q583.13 1291.83 583.41 1291.96Q583.69 1292.09 583.95 1292.09Q584.36 1292.09 584.59 1291.89Q584.82 1291.68 585.04 1291.32Q585.20 1291.06 585.34 1290.91Q585.47 1290.77 585.66 1290.77Q585.93 1290.77 586.08 1290.96Q586.24 1291.15 586.24 1291.47Q586.24 1291.90 585.96 1292.47Q585.69 1293.03 585.19 1293.43Q584.70 1293.83 584.07 1293.83M601.69 1308.17Q599.98 1308.17 598.69 1307.42Q597.40 1306.67 596.69 1305.30Q595.98 1303.93 595.98 1302.12Q595.98 1300.29 596.71 1298.89Q597.45 1297.49 598.77 1296.72Q600.10 1295.95 601.81 1295.95Q602.72 1295.95 603.65 1296.22Q604.58 1296.48 605.30 1296.94Q606.07 1297.47 606.07 1298.17Q606.07 1298.58 605.86 1298.85Q605.64 1299.13 605.30 1299.13Q605.09 1299.13 604.87 1299.02Q604.65 1298.91 604.32 1298.70Q603.71 1298.31 603.19 1298.11Q602.68 1297.90 601.95 1297.90Q600.31 1297.90 599.41 1299.01Q598.51 1300.12 598.51 1302.10Q598.51 1304.07 599.40 1305.14Q600.29 1306.22 601.93 1306.22Q602.65 1306.22 603.21 1306Q603.76 1305.78 604.34 1305.42Q604.60 1305.25 604.87 1305.13Q605.13 1305.01 605.35 1305.01Q605.69 1305.01 605.91 1305.29Q606.12 1305.57 606.12 1305.98Q606.12 1306.31 605.94 1306.59Q605.76 1306.87 605.33 1307.16Q604.60 1307.64 603.64 1307.90Q602.68 1308.17 601.69 1308.17M621.40 1294.07Q621.40 1295.37 620.64 1296.28Q619.88 1297.18 618.61 1297.40L618.61 1306.99Q618.61 1307.49 618.27 1307.81Q617.93 1308.12 617.38 1308.12Q616.87 1308.12 616.56 1307.82Q616.24 1307.52 616.24 1307.01L616.24 1306.10Q615.69 1307.11 614.71 1307.64Q613.74 1308.17 612.53 1308.17Q608.24 1308.17 608.24 1303.45L608.24 1297.18Q608.24 1296.62 608.57 1296.31Q608.89 1296 609.47 1296Q610.03 1296 610.35 1296.31Q610.68 1296.62 610.68 1297.18L610.68 1303.42Q610.68 1304.84 611.26 1305.52Q611.83 1306.19 613.04 1306.19Q614.46 1306.19 615.32 1305.28Q616.17 1304.36 616.17 1302.84L616.17 1297.18Q616.17 1296.12 617.35 1296Q618.27 1296 618.70 1295.54Q619.14 1295.08 619.21 1294.05Q619.31 1292.91 620.39 1292.91Q620.92 1292.91 621.16 1293.19Q621.40 1293.47 621.40 1294.07M631.28 1297.25Q632.25 1298.02 632.78 1299.28Q633.31 1300.53 633.31 1302.07Q633.31 1303.90 632.60 1305.29Q631.89 1306.67 630.57 1307.42Q629.26 1308.17 627.52 1308.17Q625.79 1308.17 624.47 1307.42Q623.16 1306.67 622.45 1305.29Q621.74 1303.90 621.74 1302.07Q621.74 1300.22 622.45 1298.83Q623.16 1297.44 624.47 1296.70Q625.79 1295.95 627.52 1295.95Q628.01 1295.95 628.63 1296.05Q629.16 1296.09 629.31 1296.09Q630.27 1296.09 630.75 1295.62Q631.23 1295.15 631.33 1294.07Q631.38 1293.47 631.68 1293.20Q631.98 1292.94 632.51 1292.94Q633.04 1292.94 633.28 1293.21Q633.52 1293.49 633.52 1294.09Q633.52 1295.20 632.93 1296.03Q632.34 1296.87 631.28 1297.25M627.52 1306.24Q629.14 1306.24 629.99 1305.18Q630.85 1304.12 630.85 1302.07Q630.85 1300.05 629.98 1298.97Q629.11 1297.90 627.52 1297.90Q625.93 1297.90 625.07 1298.97Q624.20 1300.05 624.20 1302.07Q624.20 1304.12 625.05 1305.18Q625.91 1306.24 627.52 1306.24M628.03 1294.65Q627.84 1294.82 627.57 1294.82Q627.31 1294.82 627.10 1294.62Q626.90 1294.43 626.90 1294.17Q626.90 1293.93 627.07 1293.73L629.67 1290.33Q630.15 1289.68 630.78 1289.68Q631.23 1289.68 631.55 1290Q631.86 1290.31 631.86 1290.74Q631.86 1291.30 631.28 1291.78L628.03 1294.65M642.32 1295.95Q643.84 1295.95 645.03 1296.72Q646.22 1297.49 646.89 1298.89Q647.55 1300.29 647.55 1302.12Q647.55 1303.93 646.90 1305.30Q646.25 1306.67 645.06 1307.42Q643.86 1308.17 642.32 1308.17Q641 1308.17 639.98 1307.60Q638.97 1307.04 638.44 1305.98L638.44 1311.35Q638.44 1311.86 638.12 1312.16Q637.79 1312.46 637.26 1312.46Q636.71 1312.46 636.36 1312.15Q636.01 1311.83 636.01 1311.30L636.01 1297.18Q636.01 1296.65 636.34 1296.32Q636.68 1296 637.24 1296Q637.77 1296 638.10 1296.32Q638.44 1296.65 638.44 1297.18L638.44 1298.17Q638.97 1297.11 639.98 1296.53Q641 1295.95 642.32 1295.95M641.74 1306.24Q643.33 1306.24 644.20 1305.17Q645.07 1304.10 645.07 1302.12Q645.07 1300.12 644.19 1299.01Q643.31 1297.90 641.74 1297.90Q640.15 1297.90 639.30 1298.99Q638.44 1300.07 638.44 1302.07Q638.44 1304.07 639.30 1305.16Q640.15 1306.24 641.74 1306.24M668.85 1293.01Q669.34 1293.01 669.60 1293.25Q669.87 1293.49 669.87 1293.90Q669.87 1294.31 669.60 1294.55Q669.34 1294.79 668.85 1294.79L667.46 1294.79L667.46 1306.94Q667.46 1307.49 667.13 1307.81Q666.81 1308.12 666.25 1308.12Q665.70 1308.12 665.37 1307.81Q665.05 1307.49 665.05 1306.94L665.05 1305.98Q664.52 1307.04 663.50 1307.60Q662.49 1308.17 661.17 1308.17Q659.65 1308.17 658.46 1307.40Q657.26 1306.63 656.60 1305.23Q655.94 1303.83 655.94 1302.02Q655.94 1300.19 656.60 1298.82Q657.26 1297.44 658.44 1296.70Q659.62 1295.95 661.17 1295.95Q662.49 1295.95 663.49 1296.52Q664.49 1297.08 665.02 1298.12L665.02 1294.79L661.24 1294.79Q660.73 1294.79 660.47 1294.55Q660.20 1294.31 660.20 1293.90Q660.20 1293.49 660.47 1293.25Q660.73 1293.01 661.24 1293.01L665.02 1293.01L665.02 1292Q665.02 1291.49 665.35 1291.19Q665.67 1290.89 666.23 1290.89Q666.78 1290.89 667.12 1291.20Q667.46 1291.52 667.46 1292.05L667.46 1293.01L668.85 1293.01M661.75 1306.24Q663.31 1306.24 664.18 1305.16Q665.05 1304.07 665.05 1302.07Q665.05 1300.07 664.19 1298.99Q663.34 1297.90 661.75 1297.90Q660.15 1297.90 659.28 1298.97Q658.40 1300.05 658.40 1302.02Q658.40 1304 659.29 1305.12Q660.18 1306.24 661.75 1306.24M672.08 1308.12Q671.55 1308.12 671.20 1307.83Q670.86 1307.54 670.86 1306.96L670.86 1297.18Q670.86 1296.60 671.20 1296.30Q671.55 1296 672.08 1296Q672.61 1296 672.95 1296.30Q673.29 1296.60 673.29 1297.18L673.29 1306.96Q673.29 1307.54 672.95 1307.83Q672.61 1308.12 672.08 1308.12M672.08 1293.64Q671.39 1293.64 670.98 1293.25Q670.57 1292.87 670.57 1292.24Q670.57 1291.61 670.98 1291.24Q671.39 1290.86 672.08 1290.86Q672.76 1290.86 673.18 1291.24Q673.60 1291.61 673.60 1292.24Q673.60 1292.87 673.19 1293.25Q672.78 1293.64 672.08 1293.64M692.26 1305.04Q692.59 1305.04 692.81 1305.30Q693.03 1305.57 693.03 1305.98Q693.03 1306.67 692.16 1307.16Q691.32 1307.64 690.32 1307.90Q689.32 1308.17 688.40 1308.17Q685.60 1308.17 683.99 1306.54Q682.37 1304.92 682.37 1302.10Q682.37 1300.29 683.09 1298.89Q683.80 1297.49 685.09 1296.72Q686.38 1295.95 688.01 1295.95Q690.38 1295.95 691.75 1297.47Q693.12 1298.99 693.12 1301.57Q693.12 1302.53 692.26 1302.53L684.81 1302.53Q685.05 1306.26 688.40 1306.26Q689.29 1306.26 689.94 1306.02Q690.59 1305.78 691.32 1305.40Q691.39 1305.35 691.71 1305.19Q692.04 1305.04 692.26 1305.04M688.06 1297.73Q686.66 1297.73 685.82 1298.63Q684.98 1299.52 684.81 1301.13L691.03 1301.13Q690.95 1299.49 690.20 1298.61Q689.44 1297.73 688.06 1297.73M709.29 1295.95Q713.25 1295.95 713.25 1300.70L713.25 1306.96Q713.25 1307.52 712.91 1307.82Q712.57 1308.12 712.02 1308.12Q711.49 1308.12 711.15 1307.82Q710.81 1307.52 710.81 1306.96L710.81 1300.72Q710.81 1299.25 710.28 1298.59Q709.75 1297.93 708.62 1297.93Q707.29 1297.93 706.52 1298.83Q705.75 1299.73 705.75 1301.30L705.75 1306.96Q705.75 1307.52 705.41 1307.82Q705.08 1308.12 704.52 1308.12Q703.99 1308.12 703.66 1307.82Q703.32 1307.52 703.32 1306.96L703.32 1300.72Q703.32 1299.25 702.79 1298.59Q702.26 1297.93 701.12 1297.93Q699.80 1297.93 699.02 1298.83Q698.23 1299.73 698.23 1301.30L698.23 1306.96Q698.23 1307.52 697.90 1307.82Q697.56 1308.12 697.03 1308.12Q696.50 1308.12 696.15 1307.82Q695.80 1307.52 695.80 1306.96L695.80 1297.15Q695.80 1296.62 696.16 1296.31Q696.52 1296 697.03 1296Q697.53 1296 697.86 1296.30Q698.18 1296.60 698.18 1297.13L698.18 1298.02Q698.71 1297.01 699.65 1296.48Q700.59 1295.95 701.82 1295.95Q703.17 1295.95 704.05 1296.50Q704.93 1297.06 705.37 1298.22Q705.90 1297.18 706.93 1296.56Q707.97 1295.95 709.29 1295.95M728.70 1306.26Q729.23 1306.31 729.45 1306.54Q729.68 1306.77 729.68 1307.18Q729.68 1307.66 729.31 1307.92Q728.94 1308.17 728.21 1308.12L727.56 1308.07Q725.61 1307.93 724.65 1306.88Q723.68 1305.83 723.68 1303.78L723.68 1298.12L722.24 1298.12Q721.18 1298.12 721.18 1297.18Q721.18 1296.75 721.45 1296.49Q721.73 1296.24 722.24 1296.24L723.68 1296.24L723.68 1293.76Q723.68 1293.20 724.01 1292.89Q724.33 1292.58 724.89 1292.58Q725.44 1292.58 725.78 1292.89Q726.12 1293.20 726.12 1293.76L726.12 1296.24L728.50 1296.24Q729.01 1296.24 729.29 1296.49Q729.56 1296.75 729.56 1297.18Q729.56 1297.64 729.29 1297.88Q729.01 1298.12 728.50 1298.12L726.12 1298.12L726.12 1303.95Q726.12 1305.08 726.59 1305.61Q727.06 1306.14 728.02 1306.22L728.70 1306.26M737.61 1296Q738.77 1295.93 738.77 1296.99Q738.77 1297.52 738.50 1297.78Q738.24 1298.05 737.59 1298.09L736.87 1298.17Q735.35 1298.31 734.61 1299.23Q733.88 1300.14 733.88 1301.44L733.88 1306.96Q733.88 1307.54 733.54 1307.83Q733.20 1308.12 732.67 1308.12Q732.14 1308.12 731.79 1307.83Q731.44 1307.54 731.44 1306.96L731.44 1297.15Q731.44 1296.60 731.79 1296.30Q732.14 1296 732.67 1296Q733.15 1296 733.48 1296.30Q733.80 1296.60 733.80 1297.13L733.80 1298.29Q734.29 1297.23 735.20 1296.67Q736.12 1296.12 737.27 1296.02L737.61 1296M745.20 1295.95Q747.54 1295.95 748.69 1297.13Q749.83 1298.31 749.83 1300.72L749.83 1306.96Q749.83 1307.52 749.52 1307.82Q749.20 1308.12 748.65 1308.12Q748.12 1308.12 747.81 1307.81Q747.49 1307.49 747.49 1306.96L747.49 1306.07Q747.04 1307.08 746.13 1307.63Q745.23 1308.17 744.02 1308.17Q742.87 1308.17 741.91 1307.70Q740.96 1307.23 740.41 1306.41Q739.85 1305.59 739.85 1304.55Q739.83 1303.25 740.50 1302.52Q741.18 1301.78 742.70 1301.46Q744.22 1301.13 746.91 1301.13L747.47 1301.13L747.47 1300.43Q747.47 1299.08 746.91 1298.48Q746.36 1297.88 745.13 1297.88Q744.29 1297.88 743.54 1298.09Q742.79 1298.31 741.90 1298.72Q741.25 1299.08 740.99 1299.08Q740.62 1299.08 740.40 1298.82Q740.17 1298.55 740.17 1298.14Q740.17 1297.78 740.37 1297.50Q740.58 1297.23 741.03 1296.96Q741.88 1296.50 743.01 1296.23Q744.14 1295.95 745.20 1295.95M744.46 1306.36Q745.78 1306.36 746.63 1305.46Q747.47 1304.55 747.47 1303.13L747.47 1302.51L747.04 1302.51Q745.16 1302.51 744.14 1302.67Q743.13 1302.84 742.70 1303.24Q742.26 1303.64 742.26 1304.38Q742.26 1305.25 742.89 1305.81Q743.52 1306.36 744.46 1306.36M754.39 1308.12Q753.86 1308.12 753.51 1307.83Q753.16 1307.54 753.16 1306.96L753.16 1297.18Q753.16 1296.60 753.51 1296.30Q753.86 1296 754.39 1296Q754.92 1296 755.25 1296.30Q755.59 1296.60 755.59 1297.18L755.59 1306.96Q755.59 1307.54 755.25 1307.83Q754.92 1308.12 754.39 1308.12M754.39 1293.64Q753.69 1293.64 753.28 1293.25Q752.87 1292.87 752.87 1292.24Q752.87 1291.61 753.28 1291.24Q753.69 1290.86 754.39 1290.86Q755.06 1290.86 755.48 1291.24Q755.90 1291.61 755.90 1292.24Q755.90 1292.87 755.49 1293.25Q755.08 1293.64 754.39 1293.64M770.39 1308.17Q768.68 1308.17 767.39 1307.42Q766.10 1306.67 765.39 1305.30Q764.68 1303.93 764.68 1302.12Q764.68 1300.29 765.41 1298.89Q766.15 1297.49 767.47 1296.72Q768.80 1295.95 770.51 1295.95Q771.42 1295.95 772.35 1296.22Q773.28 1296.48 774 1296.94Q774.77 1297.47 774.77 1298.17Q774.77 1298.58 774.56 1298.85Q774.34 1299.13 774 1299.13Q773.79 1299.13 773.57 1299.02Q773.35 1298.91 773.02 1298.70Q772.41 1298.31 771.89 1298.11Q771.38 1297.90 770.65 1297.90Q769.01 1297.90 768.11 1299.01Q767.21 1300.12 767.21 1302.10Q767.21 1304.07 768.10 1305.14Q768.99 1306.22 770.63 1306.22Q771.35 1306.22 771.91 1306Q772.46 1305.78 773.04 1305.42Q773.30 1305.25 773.57 1305.13Q773.83 1305.01 774.05 1305.01Q774.39 1305.01 774.61 1305.29Q774.82 1305.57 774.82 1305.98Q774.82 1306.31 774.64 1306.59Q774.46 1306.87 774.03 1307.16Q773.30 1307.64 772.34 1307.90Q771.38 1308.17 770.39 1308.17M782.10 1308.17Q780.37 1308.17 779.05 1307.42Q777.74 1306.67 777.03 1305.29Q776.32 1303.90 776.32 1302.07Q776.32 1300.22 777.03 1298.83Q777.74 1297.44 779.05 1296.70Q780.37 1295.95 782.10 1295.95Q783.84 1295.95 785.15 1296.70Q786.46 1297.44 787.17 1298.83Q787.88 1300.22 787.88 1302.07Q787.88 1303.90 787.17 1305.29Q786.46 1306.67 785.15 1307.42Q783.84 1308.17 782.10 1308.17M782.10 1306.24Q783.72 1306.24 784.57 1305.18Q785.43 1304.12 785.43 1302.07Q785.43 1300.05 784.56 1298.97Q783.69 1297.90 782.10 1297.90Q780.51 1297.90 779.64 1298.97Q778.77 1300.05 778.77 1302.07Q778.77 1304.12 779.63 1305.18Q780.49 1306.24 782.10 1306.24M780.27 1294.36Q780 1294.79 779.52 1294.79Q779.18 1294.79 778.93 1294.55Q778.68 1294.31 778.68 1293.97Q778.68 1293.71 778.87 1293.44L781.04 1290.33Q781.28 1290.02 781.52 1289.86Q781.76 1289.71 782.10 1289.71Q782.44 1289.71 782.68 1289.85Q782.92 1290 783.16 1290.33L785.33 1293.44Q785.52 1293.71 785.52 1293.97Q785.52 1294.31 785.27 1294.55Q785.02 1294.79 784.68 1294.79Q784.22 1294.79 783.93 1294.36L782.10 1291.47L780.27 1294.36M791.76 1308.12Q791.11 1308.12 790.67 1307.69Q790.22 1307.25 790.22 1306.58Q790.22 1305.90 790.67 1305.46Q791.11 1305.01 791.76 1305.01Q792.42 1305.01 792.85 1305.46Q793.28 1305.90 793.28 1306.58Q793.28 1307.25 792.85 1307.69Q792.42 1308.12 791.76 1308.12" fill="#a8bcd0"/>
  </g>
  <g>
    <rect x="268.7" y="1354" width="486.6" height="80" rx="6" fill="#0a141c" opacity="0.8" stroke="#4a7ca5" stroke-width="1"/>
    <rect x="274.7" y="1360" width="474.6" height="1" fill="#dceaf5" opacity="0.4"/>
    <path d="M350.95 1402.12Q350.40 1402.12 350.05 1401.77Q349.70 1401.42 349.70 1400.87L349.70 1387.08L344.88 1387.08Q343.72 1387.08 343.72 1386.05Q343.72 1385.54 344.02 1385.27Q344.32 1385.01 344.88 1385.01L357.02 1385.01Q357.58 1385.01 357.88 1385.27Q358.18 1385.54 358.18 1386.05Q358.18 1387.08 357.02 1387.08L352.20 1387.08L352.20 1400.87Q352.20 1401.42 351.87 1401.77Q351.53 1402.12 350.95 1402.12M375.22 1400.55Q375.34 1400.84 375.34 1401.04Q375.34 1401.49 374.97 1401.81Q374.59 1402.12 374.14 1402.12Q373.82 1402.12 373.55 1401.94Q373.27 1401.76 373.12 1401.42L371.53 1397.81L362.71 1397.81L361.12 1401.42Q360.98 1401.76 360.69 1401.94Q360.40 1402.12 360.09 1402.12Q359.60 1402.12 359.23 1401.81Q358.86 1401.49 358.86 1401.04Q358.86 1400.84 358.98 1400.55L365.77 1385.68Q365.94 1385.30 366.32 1385.08Q366.69 1384.86 367.10 1384.86Q367.51 1384.86 367.88 1385.08Q368.26 1385.30 368.42 1385.68L375.22 1400.55M367.12 1387.85L363.60 1395.83L370.67 1395.83L367.12 1387.85M365.17 1383.39Q364.88 1383.68 364.52 1383.68Q364.18 1383.68 363.95 1383.44Q363.72 1383.20 363.72 1382.89Q363.72 1382.55 364.04 1382.24L366.11 1380.19Q366.54 1379.78 367.10 1379.78Q367.65 1379.78 368.09 1380.19L370.16 1382.24Q370.47 1382.55 370.47 1382.89Q370.47 1383.20 370.23 1383.44Q369.99 1383.68 369.65 1383.68Q369.32 1383.68 369.03 1383.39L367.10 1381.32L365.17 1383.39M393.01 1384.89Q393.54 1384.89 393.87 1385.24Q394.21 1385.59 394.21 1386.14L394.21 1400.94Q394.21 1401.49 393.91 1401.81Q393.61 1402.12 393.08 1402.12Q392.57 1402.12 392.28 1401.81Q391.99 1401.49 391.99 1400.94L391.99 1389.73L387.27 1398.72Q386.81 1399.57 386.09 1399.57Q385.37 1399.57 384.91 1398.72L380.16 1389.83L380.16 1400.94Q380.16 1401.49 379.87 1401.81Q379.58 1402.12 379.05 1402.12Q378.55 1402.12 378.25 1401.80Q377.94 1401.47 377.94 1400.94L377.94 1386.14Q377.94 1385.59 378.28 1385.24Q378.62 1384.89 379.15 1384.89Q379.90 1384.89 380.35 1385.76L386.11 1396.77L391.83 1385.76Q392.28 1384.89 393.01 1384.89M405.76 1402Q405.20 1402 404.88 1401.69Q404.55 1401.37 404.55 1400.84L404.55 1386.14Q404.55 1385.59 404.89 1385.24Q405.22 1384.89 405.78 1384.89Q406.36 1384.89 406.70 1385.23Q407.03 1385.56 407.03 1386.14L407.03 1399.93L414.36 1399.93Q414.91 1399.93 415.21 1400.19Q415.52 1400.46 415.52 1400.96Q415.52 1401.47 415.21 1401.73Q414.91 1402 414.36 1402L405.76 1402M428.36 1385.32Q428.70 1384.89 429.20 1384.89Q429.64 1384.89 429.99 1385.24Q430.34 1385.59 430.34 1386.05Q430.34 1386.48 430.05 1386.79L424.36 1393.88L424.36 1400.87Q424.36 1401.47 424.01 1401.80Q423.66 1402.12 423.11 1402.12Q422.55 1402.12 422.22 1401.80Q421.88 1401.47 421.88 1400.87L421.88 1393.88L416.19 1386.79Q415.90 1386.48 415.90 1386.02Q415.90 1385.56 416.24 1385.23Q416.58 1384.89 417.03 1384.89Q417.52 1384.89 417.88 1385.32L423.13 1391.93L428.36 1385.32M423.47 1383.59Q423.30 1383.68 423.11 1383.68Q422.84 1383.68 422.66 1383.52Q422.48 1383.35 422.48 1383.11Q422.48 1382.86 422.70 1382.65L424.99 1380.21Q425.44 1379.76 425.93 1379.76Q426.34 1379.76 426.63 1380.04Q426.91 1380.33 426.91 1380.74Q426.91 1381.32 426.24 1381.73L423.47 1383.59M439.71 1397.13Q439.06 1397.13 438.62 1396.70Q438.17 1396.26 438.17 1395.59Q438.17 1394.91 438.62 1394.47Q439.06 1394.02 439.71 1394.02Q440.36 1394.02 440.80 1394.47Q441.23 1394.91 441.23 1395.59Q441.23 1396.26 440.80 1396.70Q440.36 1397.13 439.71 1397.13M463.69 1392.99Q464.15 1392.99 464.43 1393.25Q464.70 1393.52 464.70 1393.97L464.70 1399.61Q464.70 1400.43 464.47 1400.80Q464.25 1401.16 463.57 1401.37Q462.61 1401.76 461.28 1401.98Q459.96 1402.19 458.65 1402.19Q456.08 1402.19 454.20 1401.16Q452.32 1400.12 451.33 1398.17Q450.34 1396.22 450.34 1393.49Q450.34 1390.82 451.33 1388.87Q452.32 1386.91 454.16 1385.87Q456 1384.82 458.49 1384.82Q460.17 1384.82 461.61 1385.31Q463.04 1385.80 464.05 1386.74Q464.54 1387.13 464.54 1387.71Q464.54 1388.14 464.29 1388.44Q464.05 1388.74 463.72 1388.74Q463.50 1388.74 463.33 1388.67Q463.16 1388.60 462.90 1388.43Q461.72 1387.56 460.75 1387.21Q459.79 1386.87 458.53 1386.87Q455.79 1386.87 454.34 1388.56Q452.89 1390.26 452.89 1393.49Q452.89 1396.79 454.38 1398.49Q455.86 1400.19 458.73 1400.19Q460.65 1400.19 462.44 1399.61L462.44 1394.87L459.28 1394.87Q458.80 1394.87 458.52 1394.61Q458.24 1394.36 458.24 1393.93Q458.24 1393.49 458.52 1393.24Q458.80 1392.99 459.28 1392.99L463.69 1392.99M469.69 1402.12Q469.14 1402.12 468.80 1401.78Q468.46 1401.45 468.46 1400.87L468.46 1386.14Q468.46 1385.59 468.80 1385.24Q469.14 1384.89 469.69 1384.89Q470.27 1384.89 470.61 1385.23Q470.95 1385.56 470.95 1386.14L470.95 1400.87Q470.95 1401.45 470.62 1401.78Q470.29 1402.12 469.69 1402.12M489.89 1400.55Q490.01 1400.84 490.01 1401.04Q490.01 1401.49 489.64 1401.81Q489.26 1402.12 488.80 1402.12Q488.49 1402.12 488.21 1401.94Q487.94 1401.76 487.79 1401.42L486.20 1397.81L477.38 1397.81L475.79 1401.42Q475.65 1401.76 475.36 1401.94Q475.07 1402.12 474.75 1402.12Q474.27 1402.12 473.90 1401.81Q473.52 1401.49 473.52 1401.04Q473.52 1400.84 473.64 1400.55L480.44 1385.68Q480.61 1385.30 480.98 1385.08Q481.36 1384.86 481.77 1384.86Q482.18 1384.86 482.55 1385.08Q482.92 1385.30 483.09 1385.68L489.89 1400.55M481.79 1387.85L478.27 1395.83L485.33 1395.83L481.79 1387.85M505.34 1385.01Q509.46 1385.01 511.72 1387.23Q513.99 1389.44 513.99 1393.49Q513.99 1397.54 511.72 1399.77Q509.46 1402 505.34 1402L500.61 1402Q500.03 1402 499.71 1401.67Q499.38 1401.35 499.38 1400.80L499.38 1394.36L498.11 1394.36Q497.58 1394.36 497.27 1394.11Q496.97 1393.85 496.97 1393.40Q496.97 1392.94 497.27 1392.67Q497.58 1392.41 498.11 1392.41L499.38 1392.41L499.38 1386.21Q499.38 1385.66 499.71 1385.33Q500.03 1385.01 500.61 1385.01L505.34 1385.01M505.19 1399.93Q511.46 1399.93 511.46 1393.49Q511.46 1387.08 505.19 1387.08L501.87 1387.08L501.87 1392.41L505.60 1392.41Q506.11 1392.41 506.40 1392.67Q506.69 1392.94 506.69 1393.40Q506.69 1393.85 506.40 1394.11Q506.11 1394.36 505.60 1394.36L501.87 1394.36L501.87 1399.93L505.19 1399.93M518.59 1402.12Q518.04 1402.12 517.70 1401.78Q517.36 1401.45 517.36 1400.87L517.36 1386.14Q517.36 1385.59 517.70 1385.24Q518.04 1384.89 518.59 1384.89Q519.17 1384.89 519.51 1385.23Q519.84 1385.56 519.84 1386.14L519.84 1400.87Q519.84 1401.45 519.52 1401.78Q519.19 1402.12 518.59 1402.12M515.46 1381.73Q514.78 1381.32 514.78 1380.74Q514.78 1380.33 515.07 1380.04Q515.36 1379.76 515.77 1379.76Q516.25 1379.76 516.71 1380.21L519 1382.65Q519.22 1382.86 519.22 1383.11Q519.22 1383.35 519.04 1383.52Q518.86 1383.68 518.59 1383.68Q518.40 1383.68 518.23 1383.59L515.46 1381.73M536.57 1384.89Q537.10 1384.89 537.43 1385.24Q537.75 1385.59 537.75 1386.14L537.75 1400.87Q537.75 1401.42 537.41 1401.77Q537.08 1402.12 536.55 1402.12Q535.92 1402.12 535.58 1401.64L526.13 1389.18L526.13 1400.87Q526.13 1401.42 525.81 1401.77Q525.48 1402.12 524.95 1402.12Q524.42 1402.12 524.11 1401.78Q523.80 1401.45 523.80 1400.87L523.80 1386.14Q523.80 1385.59 524.13 1385.24Q524.47 1384.89 525 1384.89Q525.63 1384.89 525.97 1385.37L535.41 1397.85L535.41 1386.14Q535.41 1385.59 535.73 1385.24Q536.04 1384.89 536.57 1384.89M554.89 1384.89Q555.44 1384.89 555.78 1385.24Q556.12 1385.59 556.12 1386.14L556.12 1400.87Q556.12 1401.42 555.78 1401.77Q555.44 1402.12 554.89 1402.12Q554.33 1402.12 553.99 1401.78Q553.66 1401.45 553.66 1400.87L553.66 1394.38L544.16 1394.38L544.16 1400.87Q544.16 1401.42 543.82 1401.77Q543.49 1402.12 542.93 1402.12Q542.38 1402.12 542.04 1401.78Q541.70 1401.45 541.70 1400.87L541.70 1386.14Q541.70 1385.59 542.04 1385.24Q542.38 1384.89 542.93 1384.89Q543.49 1384.89 543.82 1385.24Q544.16 1385.59 544.16 1386.14L544.16 1392.36L553.66 1392.36L553.66 1386.14Q553.66 1385.59 553.99 1385.24Q554.33 1384.89 554.89 1384.89M567.32 1397.13Q566.67 1397.13 566.22 1396.70Q565.78 1396.26 565.78 1395.59Q565.78 1394.91 566.22 1394.47Q566.67 1394.02 567.32 1394.02Q567.97 1394.02 568.41 1394.47Q568.84 1394.91 568.84 1395.59Q568.84 1396.26 568.41 1396.70Q567.97 1397.13 567.32 1397.13M591.71 1384.89Q592.27 1384.89 592.60 1385.24Q592.94 1385.59 592.94 1386.14L592.94 1400.87Q592.94 1401.42 592.60 1401.77Q592.27 1402.12 591.71 1402.12Q591.16 1402.12 590.82 1401.78Q590.48 1401.45 590.48 1400.87L590.48 1394.38L580.99 1394.38L580.99 1400.87Q580.99 1401.42 580.65 1401.77Q580.31 1402.12 579.76 1402.12Q579.20 1402.12 578.87 1401.78Q578.53 1401.45 578.53 1400.87L578.53 1386.14Q578.53 1385.59 578.87 1385.24Q579.20 1384.89 579.76 1384.89Q580.31 1384.89 580.65 1385.24Q580.99 1385.59 580.99 1386.14L580.99 1392.36L590.48 1392.36L590.48 1386.14Q590.48 1385.59 590.82 1385.24Q591.16 1384.89 591.71 1384.89M598.12 1402.12Q597.57 1402.12 597.23 1401.78Q596.89 1401.45 596.89 1400.87L596.89 1386.14Q596.89 1385.59 597.23 1385.24Q597.57 1384.89 598.12 1384.89Q598.70 1384.89 599.04 1385.23Q599.37 1385.56 599.37 1386.14L599.37 1400.87Q599.37 1401.45 599.05 1401.78Q598.72 1402.12 598.12 1402.12M604.56 1402Q603.98 1402 603.65 1401.67Q603.33 1401.35 603.33 1400.80L603.33 1386.21Q603.33 1385.66 603.65 1385.33Q603.98 1385.01 604.56 1385.01L613.42 1385.01Q613.98 1385.01 614.28 1385.27Q614.58 1385.54 614.58 1386.02Q614.58 1386.50 614.28 1386.76Q613.98 1387.01 613.42 1387.01L605.76 1387.01L605.76 1392.36L612.94 1392.36Q613.50 1392.36 613.80 1392.63Q614.10 1392.89 614.10 1393.37Q614.10 1393.85 613.80 1394.12Q613.50 1394.38 612.94 1394.38L605.76 1394.38L605.76 1400L613.42 1400Q614.58 1400 614.58 1400.99Q614.58 1401.47 614.28 1401.73Q613.98 1402 613.42 1402L604.56 1402M609.21 1406.63Q608.58 1406.63 608.20 1406.25Q607.81 1405.88 607.81 1405.28Q607.81 1404.68 608.20 1404.31Q608.58 1403.95 609.21 1403.95Q609.81 1403.95 610.21 1404.33Q610.61 1404.70 610.61 1405.28Q610.61 1405.88 610.22 1406.25Q609.83 1406.63 609.21 1406.63M607.28 1383.39Q606.99 1383.68 606.63 1383.68Q606.29 1383.68 606.06 1383.44Q605.83 1383.20 605.83 1382.89Q605.83 1382.55 606.15 1382.24L608.22 1380.19Q608.65 1379.78 609.21 1379.78Q609.76 1379.78 610.20 1380.19L612.27 1382.24Q612.58 1382.55 612.58 1382.89Q612.58 1383.20 612.34 1383.44Q612.10 1383.68 611.76 1383.68Q611.42 1383.68 611.14 1383.39L609.21 1381.32L607.28 1383.39M630.20 1384.89Q630.73 1384.89 631.05 1385.24Q631.38 1385.59 631.38 1386.14L631.38 1400.87Q631.38 1401.42 631.04 1401.77Q630.70 1402.12 630.17 1402.12Q629.55 1402.12 629.21 1401.64L619.76 1389.18L619.76 1400.87Q619.76 1401.42 619.44 1401.77Q619.11 1402.12 618.58 1402.12Q618.05 1402.12 617.74 1401.78Q617.43 1401.45 617.43 1400.87L617.43 1386.14Q617.43 1385.59 617.76 1385.24Q618.10 1384.89 618.63 1384.89Q619.26 1384.89 619.59 1385.37L629.04 1397.85L629.04 1386.14Q629.04 1385.59 629.35 1385.24Q629.67 1384.89 630.20 1384.89M648.08 1385.01Q652.20 1385.01 654.47 1387.23Q656.73 1389.44 656.73 1393.49Q656.73 1397.54 654.47 1399.77Q652.20 1402 648.08 1402L643.36 1402Q642.78 1402 642.45 1401.67Q642.13 1401.35 642.13 1400.80L642.13 1394.36L640.85 1394.36Q640.32 1394.36 640.02 1394.11Q639.72 1393.85 639.72 1393.40Q639.72 1392.94 640.02 1392.67Q640.32 1392.41 640.85 1392.41L642.13 1392.41L642.13 1386.21Q642.13 1385.66 642.45 1385.33Q642.78 1385.01 643.36 1385.01L648.08 1385.01M647.94 1399.93Q654.20 1399.93 654.20 1393.49Q654.20 1387.08 647.94 1387.08L644.61 1387.08L644.61 1392.41L648.35 1392.41Q648.85 1392.41 649.14 1392.67Q649.43 1392.94 649.43 1393.40Q649.43 1393.85 649.14 1394.11Q648.85 1394.36 648.35 1394.36L644.61 1394.36L644.61 1399.93L647.94 1399.93M675.10 1400.55Q675.22 1400.84 675.22 1401.04Q675.22 1401.49 674.84 1401.81Q674.47 1402.12 674.01 1402.12Q673.70 1402.12 673.42 1401.94Q673.14 1401.76 673 1401.42L671.41 1397.81L662.59 1397.81L661 1401.42Q660.85 1401.76 660.56 1401.94Q660.28 1402.12 659.96 1402.12Q659.48 1402.12 659.11 1401.81Q658.73 1401.49 658.73 1401.04Q658.73 1400.84 658.85 1400.55L665.65 1385.68Q665.82 1385.30 666.19 1385.08Q666.57 1384.86 666.98 1384.86Q667.38 1384.86 667.76 1385.08Q668.13 1385.30 668.30 1385.68L675.10 1400.55M667 1387.85L663.48 1395.83L670.54 1395.83L667 1387.85M666.98 1406.63Q666.35 1406.63 665.96 1406.25Q665.58 1405.88 665.58 1405.28Q665.58 1404.68 665.96 1404.31Q666.35 1403.95 666.98 1403.95Q667.58 1403.95 667.98 1404.33Q668.37 1404.70 668.37 1405.28Q668.37 1405.88 667.99 1406.25Q667.60 1406.63 666.98 1406.63M679.03 1402.12Q678.47 1402.12 678.13 1401.78Q677.80 1401.45 677.80 1400.87L677.80 1386.14Q677.80 1385.59 678.13 1385.24Q678.47 1384.89 679.03 1384.89Q679.60 1384.89 679.94 1385.23Q680.28 1385.56 680.28 1386.14L680.28 1400.87Q680.28 1401.45 679.95 1401.78Q679.63 1402.12 679.03 1402.12" fill="#dceaf5"/>
  </g>
</svg>
